<?xml version="1.0" encoding="UTF-8"?>
<svg id="Camada_2" data-name="Camada 2" xmlns="http://www.w3.org/2000/svg" viewBox="0 0 505 132.46">
  <defs>
    <style>
      .cls-1 {
        fill: #fff;
      }

      .cls-2 {
        isolation: isolate;
      }

      .cls-3 {
        stroke: #fbe200;
      }

      .cls-3, .cls-4 {
        fill: none;
        stroke-miterlimit: 10;
        stroke-width: 2px;
      }

      .cls-4 {
        stroke: #fff;
      }
    </style>
  </defs>
  <g id="Camada_2-2" data-name="Camada 2">
    <g id="Camada_1-2" data-name="Camada 1-2">
      <g>
        <path class="cls-1" d="M324.31,59.94c-.83-.11-3.93-1.13-4.76-1.55-3.07-1.54-3.75-5.46-3.6-8.61.06-1.26.92-6.43,1.63-6.94.62-.45,1.47-.43,2.2-.51,5.29-.48,21.89-.54,26.4,1.14,4.06,1.52,5.97,6.4,6.3,10.38l-.06,35.98c-.6,1.75-13.6,4.25-16.06,4.67-26.29,4.51-51.25.95-58.03-28.71-9.34-40.85,16.4-77.05,60.27-62.52,2.11.7,12.86,5.31,13.36,6.94.88,3.49-5.31,13.4-8.37,14.03-1.98.42-4.61-1.84-6.58-2.7-28.84-12.66-40.95,5.37-39.06,32.76,1.35,19.61,11.76,27.62,31.28,24.98,1.37-.18,3.57-.93,3.86-2.45.43-2.29.33-12.79.04-15.34-.08-.66-.05-1.16-.7-1.55-2.57-.23-5.61.32-8.11,0M461.52,65.53c.98-1.24,11.01-.47,13.36-.61,22.3-1.38,32.94-17.97,29.47-39.42-3.69-22.81-24.65-24.39-43.48-24.17-4.99.05-12.34,0-17.1.48-.88.09-3.05.36-3.33,1.17l.04,90.45c.57,1.94,6.34,1.18,8.24,1.22,1.91.05,3.04.05,4.97,0,1.55-.05,5.95.36,6.87-.56,1.81-1.8-.7-26.44.97-28.56M473.05,17.57c.89,0,4.53,1.6,5.41,2.26,6.68,5.01,6.83,21.3.46,26.6-3.35,2.79-11.61,3.29-15.81,2.72-.6-.08-2.01-.58-2.01-1.15v-29.3c0-.15.6-.69.45-1.13h11.5ZM388.31,77.06c-1.19,0-.68-2.2-.68-2.48v-17.58l.68-.68h28.4c.32,0,1.11-.61,1.28-1,.98-2.35,1.29-13.44-.38-15.22-.67-.71-2.19-.84-3.13-.92-8.41-.7-17.5.69-25.94.24-.75-.42-.82-1.02-.92-1.79-.46-3.61-.02-17.64-.02-17.64,0,0,23.39.35,31.84-.16,1.73-.1,3.46-.5,5.19-.67,1.45-2.97,2.94-14.08.88-16.26l-57.9-.19-.73,1.52v79.38c.46,6.78,4.53,10.33,11.12,10.97,9.49.9,29.68.98,39.11,0,10.3-1.07,11.84-8.48,11.55-17.52h-40.36.01ZM217.23,77.27c.42-1.22.97-3.04,2.48-2.94l27.89.11c2.01.61,3.39,9.29,4.23,11.54,3.14,8.44,6.8,9.8,15.68,9.1,1.57-.13,7.41-1.02,7.83-2.57-.73-3.99-2.1-7.95-3.32-11.84-3.28-10.41-7.05-20.81-10.36-31.1-5.04-15.64-9.67-31.53-15.3-46.9-.94-.93-5.97-1.26-7.66-1.36-2.38-.13-14.59-.04-15.9,1.04l-29.86,89.41c-.08,1.83,1.98,2.57,3.41,2.84,2.63.5,14.17,1.03,15.85-.52,1.06-.98,4.17-14.25,5.05-16.81M243.33,56.91c-.37.98-1.01,1.12-1.94,1.25-4.94.67-11.49-.46-16.6-.11-.98-.37-1.44-1.25-1.15-2.27,3.25-9.39,5.84-19.02,8.38-28.63.51-1.92-.19-3.9,2.36-5.08l8.95,34.83h0ZM187.25,7.67c-.96-1.24-13.55-5.31-15.81-5.84-18.93-4.36-45.92.55-47.5,24.07-1.61,23.81,21.1,26.06,36.96,34.25,5.1,2.64,9.2,7.04,6.87,13.17-4.15,10.9-23.02,4.51-30.75,1.26-5.75-2.42-7.03-6.4-11.71.47-1.62,2.38-4.53,8.31-3.39,11.02,1.12,2.65,14.86,7.3,18.06,8.08,17.1,4.16,41.67,2.66,48.75-16.51,4.99-13.51-.89-26.66-12.81-33.85-7.63-4.61-20.42-7.06-27.16-12.05-6.85-5.06-2.59-13.7,5.21-14.56,6.38-.7,12.56,1.09,18.55,2.97,2.01.63,7.25,3.32,8.82,2.76.13-.05,1.76-1.65,1.94-1.89,1.75-2.2,5.8-11,3.97-13.35"/>
        <path class="cls-4" d="M91.96,105.87c2.2-1.4,3.55-2.25,3.55-2.25,16.27-10.33,16.27-34.08,0-44.4l-39.78-25.24c-7.72-4.9-17.95-2.61-22.85,5.11-4.9,7.72-2.61,17.95,5.11,22.85l17.39,11.03c6.19,3.93,6.19,12.97,0,16.9l-17.39,11.04c-7.72,4.9-10.01,15.13-5.11,22.85,4.9,7.72,15.13,10.01,22.85,5.11l36.23-22.99h0Z"/>
        <path class="cls-3" d="M70.72,70.82l-17.39-11.03c-6.19-3.93-6.19-12.97,0-16.9l17.39-11.03c7.72-4.9,10.01-15.13,5.11-22.85-4.9-7.73-15.13-10.01-22.85-5.11L13.2,29.14c-16.27,10.33-16.27,34.08,0,44.41l39.78,25.24c7.72,4.9,17.95,2.61,22.85-5.11,4.9-7.73,2.61-17.95-5.11-22.85"/>
        <g class="cls-2">
          <g class="cls-2">
            <path class="cls-1" d="M127.39,128.46c-1.19,0-2.32-.17-3.41-.51-1.09-.34-1.95-.78-2.59-1.32l.98-2.19c.61.48,1.36.88,2.26,1.2.9.32,1.82.48,2.76.48.8,0,1.44-.09,1.93-.26.49-.17.85-.41,1.09-.71s.35-.63.35-1.01c0-.46-.17-.84-.5-1.12-.33-.28-.76-.51-1.29-.67-.53-.17-1.12-.32-1.76-.47-.64-.14-1.29-.31-1.93-.51-.64-.2-1.23-.45-1.76-.76-.53-.31-.96-.73-1.29-1.25-.33-.52-.5-1.19-.5-2s.22-1.58.66-2.27c.44-.69,1.12-1.24,2.02-1.65.91-.41,2.05-.62,3.44-.62.91,0,1.82.12,2.72.35.9.23,1.68.57,2.35,1l-.89,2.19c-.68-.41-1.38-.71-2.11-.9-.72-.2-1.42-.29-2.09-.29-.78,0-1.42.09-1.9.28s-.84.43-1.06.74c-.22.3-.34.65-.34,1.04,0,.46.16.84.49,1.12.33.28.75.5,1.28.66.53.16,1.12.32,1.77.47.65.15,1.3.32,1.94.51.64.19,1.23.43,1.76.74.53.3.96.72,1.28,1.24.33.52.49,1.18.49,1.98s-.22,1.56-.66,2.25c-.44.69-1.12,1.24-2.03,1.65-.91.41-2.06.62-3.46.62Z"/>
            <path class="cls-1" d="M137.02,114.73c-.51,0-.92-.16-1.25-.48s-.49-.7-.49-1.15.16-.85.49-1.16.74-.47,1.25-.47.92.15,1.25.45c.33.3.49.67.49,1.12,0,.48-.16.88-.48,1.21-.32.33-.74.49-1.26.49ZM135.65,128.24v-11.6h2.72v11.6h-2.72Z"/>
            <path class="cls-1" d="M145.08,128.39c-.97,0-1.9-.13-2.79-.38-.89-.25-1.6-.56-2.12-.92l1.04-2.06c.52.33,1.14.61,1.87.83.72.22,1.45.33,2.17.33.85,0,1.47-.12,1.86-.35.38-.23.58-.54.58-.93,0-.32-.13-.56-.39-.73s-.6-.29-1.02-.38c-.42-.09-.89-.17-1.4-.24s-1.03-.17-1.54-.29c-.51-.12-.98-.3-1.4-.54-.42-.24-.76-.56-1.02-.97s-.39-.94-.39-1.61c0-.74.21-1.38.63-1.92.42-.54,1.01-.96,1.77-1.26.76-.3,1.66-.45,2.71-.45.78,0,1.57.09,2.37.26.8.17,1.46.42,1.98.74l-1.04,2.06c-.55-.33-1.1-.56-1.66-.68-.56-.12-1.11-.18-1.66-.18-.83,0-1.44.12-1.84.37-.4.25-.6.56-.6.93,0,.35.13.61.39.78s.6.31,1.02.41c.42.1.89.18,1.4.25.51.07,1.02.16,1.53.29.51.13.97.31,1.4.53s.77.54,1.03.95.39.93.39,1.59c0,.72-.21,1.36-.64,1.89-.43.54-1.03.95-1.81,1.25-.78.3-1.72.45-2.8.45Z"/>
          </g>
          <g class="cls-2">
            <path class="cls-1" d="M150.71,118.81v-2.17h7.74v2.17h-7.74ZM156.62,128.39c-1.27,0-2.26-.33-2.96-.99-.7-.66-1.04-1.63-1.04-2.92v-10.41h2.72v10.34c0,.55.14.98.42,1.28.28.3.68.46,1.18.46.61,0,1.12-.16,1.52-.48l.76,1.93c-.32.26-.71.46-1.17.59-.46.13-.94.2-1.43.2Z"/>
          </g>
          <g class="cls-2">
            <path class="cls-1" d="M165.66,128.39c-1.29,0-2.42-.26-3.38-.77s-1.71-1.22-2.24-2.12c-.53-.9-.79-1.92-.79-3.06s.26-2.18.77-3.08c.51-.89,1.22-1.59,2.13-2.1s1.94-.76,3.1-.76,2.14.25,3.02.74c.88.49,1.58,1.19,2.09,2.09.51.9.76,1.96.76,3.17,0,.12,0,.25-.01.39,0,.15-.02.28-.03.41h-9.67v-1.8h8.24l-1.06.57c.01-.67-.12-1.25-.41-1.76-.29-.51-.68-.91-1.18-1.2-.5-.29-1.08-.43-1.73-.43s-1.25.15-1.75.43c-.5.29-.89.69-1.17,1.21-.28.51-.42,1.12-.42,1.81v.43c0,.7.16,1.31.48,1.85.32.54.77.95,1.35,1.24.58.29,1.25.43,2,.43.65,0,1.24-.1,1.76-.3.52-.2.98-.52,1.39-.96l1.46,1.67c-.52.61-1.18,1.08-1.97,1.4s-1.69.49-2.71.49Z"/>
            <path class="cls-1" d="M173.29,128.24v-11.6h2.59v3.08l-.46-.91c.39-.75.96-1.33,1.71-1.72.75-.39,1.6-.59,2.55-.59,1.09,0,2.03.27,2.84.8.8.54,1.34,1.35,1.6,2.43l-1.06-.37c.38-.87,1-1.56,1.87-2.09s1.88-.78,3.02-.78c.93,0,1.75.18,2.47.54.72.36,1.28.92,1.68,1.66s.61,1.71.61,2.88v6.65h-2.72v-6.3c0-1.03-.23-1.8-.67-2.3-.45-.51-1.09-.76-1.93-.76-.59,0-1.12.13-1.58.39-.46.26-.81.64-1.06,1.15-.25.51-.38,1.15-.38,1.93v5.89h-2.72v-6.3c0-1.03-.22-1.8-.67-2.3-.45-.51-1.09-.76-1.93-.76-.59,0-1.12.13-1.58.39-.46.26-.81.64-1.06,1.15s-.38,1.15-.38,1.93v5.89h-2.72Z"/>
            <path class="cls-1" d="M199.23,128.39c-.87,0-1.63-.15-2.28-.45-.65-.3-1.16-.71-1.51-1.24-.35-.53-.53-1.13-.53-1.79s.16-1.24.47-1.76.82-.93,1.53-1.24c.71-.3,1.65-.46,2.83-.46h3.37v1.8h-3.17c-.93,0-1.55.15-1.87.45-.32.3-.48.66-.48,1.1,0,.49.2.88.59,1.17s.93.43,1.63.43,1.26-.15,1.79-.46c.53-.3.91-.75,1.14-1.35l.46,1.63c-.26.68-.73,1.21-1.4,1.59-.67.38-1.52.57-2.55.57ZM202.88,128.24v-2.35l-.15-.5v-4.11c0-.8-.24-1.42-.72-1.86-.48-.44-1.2-.66-2.17-.66-.65,0-1.29.1-1.92.3-.63.2-1.16.49-1.6.85l-1.06-1.98c.62-.48,1.37-.84,2.23-1.08.86-.24,1.76-.36,2.68-.36,1.68,0,2.98.4,3.9,1.21s1.38,2.05,1.38,3.73v6.8h-2.56Z"/>
            <path class="cls-1" d="M218.96,128.39c-1.12,0-2.12-.25-3.01-.75-.89-.5-1.59-1.19-2.1-2.08-.51-.88-.76-1.93-.76-3.13s.25-2.25.76-3.13c.51-.88,1.21-1.57,2.1-2.06.89-.49,1.89-.74,3.01-.74.97,0,1.84.21,2.61.64.77.43,1.38,1.08,1.83,1.94.45.87.67,1.99.67,3.35s-.22,2.46-.65,3.33c-.43.88-1.04,1.53-1.8,1.97s-1.65.65-2.65.65ZM219.29,126.07c.65,0,1.24-.14,1.75-.43s.93-.71,1.24-1.26c.31-.55.47-1.2.47-1.93s-.16-1.4-.47-1.95c-.31-.54-.72-.96-1.24-1.25s-1.1-.43-1.75-.43-1.23.14-1.75.43-.93.71-1.24,1.25c-.31.54-.47,1.19-.47,1.95s.16,1.38.47,1.93c.31.55.72.97,1.24,1.26s1.1.43,1.75.43ZM222.81,128.24v-2.74l.11-3.08-.22-3.09v-7.21h2.69v16.12h-2.59Z"/>
            <path class="cls-1" d="M234,128.39c-1.29,0-2.42-.26-3.38-.77s-1.71-1.22-2.24-2.12c-.53-.9-.79-1.92-.79-3.06s.26-2.18.77-3.08c.51-.89,1.22-1.59,2.13-2.1s1.94-.76,3.1-.76,2.14.25,3.02.74c.88.49,1.58,1.19,2.09,2.09.51.9.76,1.96.76,3.17,0,.12,0,.25-.01.39,0,.15-.02.28-.03.41h-9.67v-1.8h8.24l-1.06.57c.01-.67-.12-1.25-.41-1.76-.29-.51-.68-.91-1.18-1.2-.5-.29-1.08-.43-1.73-.43s-1.25.15-1.75.43c-.5.29-.89.69-1.17,1.21-.28.51-.42,1.12-.42,1.81v.43c0,.7.16,1.31.48,1.85.32.54.77.95,1.35,1.24.58.29,1.25.43,2,.43.65,0,1.24-.1,1.76-.3.52-.2.98-.52,1.39-.96l1.46,1.67c-.52.61-1.18,1.08-1.97,1.4s-1.69.49-2.71.49Z"/>
            <path class="cls-1" d="M245.3,128.24l6.85-15.21h2.78l6.87,15.21h-2.96l-5.89-13.71h1.13l-5.87,13.71h-2.91ZM248.45,124.72l.76-2.22h8.21l.76,2.22h-9.74Z"/>
            <path class="cls-1" d="M263.03,132.46v-15.82h2.59v2.74l-.09,3.09.22,3.09v6.91h-2.72ZM269.46,128.39c-.94,0-1.8-.22-2.58-.65-.78-.43-1.39-1.09-1.85-1.97-.46-.88-.68-1.99-.68-3.33s.22-2.48.66-3.35c.44-.87,1.05-1.52,1.81-1.94.77-.43,1.64-.64,2.63-.64,1.14,0,2.15.25,3.03.74.88.49,1.57,1.18,2.09,2.06.51.88.77,1.93.77,3.13s-.26,2.25-.77,3.14c-.51.89-1.21,1.58-2.09,2.08-.88.49-1.89.74-3.03.74ZM269.16,126.07c.65,0,1.24-.14,1.75-.43.51-.29.92-.71,1.23-1.26.3-.55.46-1.2.46-1.93s-.15-1.4-.46-1.95c-.3-.54-.71-.96-1.23-1.25-.51-.29-1.1-.43-1.75-.43s-1.24.14-1.76.43-.93.71-1.24,1.25c-.3.54-.46,1.19-.46,1.95s.15,1.38.46,1.93c.3.55.72.97,1.24,1.26s1.11.43,1.76.43Z"/>
            <path class="cls-1" d="M282.72,128.39c-1.19,0-2.25-.26-3.17-.77-.93-.51-1.66-1.22-2.2-2.12-.54-.9-.8-1.92-.8-3.06s.27-2.18.8-3.08c.54-.89,1.27-1.59,2.2-2.1.93-.51,1.98-.76,3.17-.76s2.27.25,3.21.76c.93.51,1.67,1.2,2.2,2.09.53.88.79,1.91.79,3.09s-.26,2.17-.79,3.06c-.53.9-1.26,1.6-2.2,2.12-.93.51-2,.77-3.21.77ZM282.72,126.07c.67,0,1.26-.14,1.78-.43s.93-.71,1.23-1.26c.3-.55.45-1.2.45-1.93s-.15-1.4-.45-1.95c-.3-.54-.71-.96-1.23-1.25s-1.11-.43-1.76-.43-1.26.14-1.77.43c-.51.29-.92.71-1.23,1.25-.3.54-.46,1.19-.46,1.95s.15,1.38.46,1.93c.3.55.71.97,1.23,1.26.51.29,1.1.43,1.75.43Z"/>
            <path class="cls-1" d="M292.45,114.73c-.51,0-.92-.16-1.25-.48s-.49-.7-.49-1.15.16-.85.49-1.16.74-.47,1.25-.47.92.15,1.25.45.49.67.49,1.12c0,.48-.16.88-.48,1.21s-.74.49-1.26.49ZM291.08,128.24v-11.6h2.72v11.6h-2.72Z"/>
            <path class="cls-1" d="M302.14,128.39c-1.19,0-2.25-.26-3.17-.77s-1.66-1.22-2.19-2.12c-.54-.9-.8-1.92-.8-3.06s.27-2.18.8-3.08c.54-.89,1.27-1.59,2.19-2.1s1.98-.76,3.17-.76,2.27.25,3.21.76,1.67,1.2,2.19,2.09c.53.88.79,1.91.79,3.09s-.26,2.17-.79,3.06c-.53.9-1.26,1.6-2.19,2.12s-2,.77-3.21.77ZM302.14,126.07c.67,0,1.26-.14,1.78-.43s.93-.71,1.23-1.26c.3-.55.45-1.2.45-1.93s-.15-1.4-.45-1.95c-.3-.54-.71-.96-1.23-1.25s-1.11-.43-1.76-.43-1.26.14-1.77.43c-.51.29-.92.71-1.23,1.25-.3.54-.46,1.19-.46,1.95s.15,1.38.46,1.93c.3.55.71.97,1.23,1.26.51.29,1.1.43,1.75.43Z"/>
            <path class="cls-1" d="M319.57,128.39c-.87,0-1.63-.15-2.28-.45-.65-.3-1.16-.71-1.51-1.24-.36-.53-.53-1.13-.53-1.79s.16-1.24.47-1.76.82-.93,1.53-1.24c.71-.3,1.65-.46,2.83-.46h3.37v1.8h-3.17c-.93,0-1.55.15-1.87.45s-.48.66-.48,1.1c0,.49.2.88.59,1.17.39.29.93.43,1.63.43s1.26-.15,1.79-.46c.53-.3.91-.75,1.14-1.35l.46,1.63c-.26.68-.73,1.21-1.4,1.59-.67.38-1.52.57-2.55.57ZM323.22,128.24v-2.35l-.15-.5v-4.11c0-.8-.24-1.42-.72-1.86-.48-.44-1.2-.66-2.17-.66-.65,0-1.29.1-1.92.3-.63.2-1.16.49-1.6.85l-1.06-1.98c.62-.48,1.37-.84,2.23-1.08.86-.24,1.76-.36,2.68-.36,1.68,0,2.98.4,3.9,1.21s1.38,2.05,1.38,3.73v6.8h-2.56Z"/>
            <path class="cls-1" d="M341.76,128.46c-1.19,0-2.28-.19-3.27-.58s-1.86-.93-2.6-1.63c-.74-.7-1.31-1.53-1.72-2.49s-.61-2-.61-3.13.2-2.17.61-3.13.98-1.79,1.73-2.49c.75-.7,1.62-1.25,2.62-1.63,1-.38,2.09-.58,3.28-.58,1.29,0,2.45.21,3.49.63,1.04.42,1.91,1.04,2.62,1.85l-1.78,1.74c-.59-.59-1.24-1.03-1.92-1.31-.69-.28-1.44-.42-2.27-.42s-1.54.13-2.22.39c-.68.26-1.27.63-1.76,1.11-.49.48-.87,1.04-1.14,1.7-.27.65-.4,1.37-.4,2.15s.13,1.48.4,2.13c.27.65.65,1.22,1.14,1.71.49.49,1.07.86,1.74,1.12s1.41.39,2.22.39c.75,0,1.48-.12,2.18-.36.7-.24,1.37-.64,2.01-1.21l1.61,2.11c-.8.64-1.72,1.12-2.77,1.45-1.05.33-2.11.49-3.18.49ZM347.71,126.53l-2.67-.37v-5.69h2.67v6.06Z"/>
            <path class="cls-1" d="M356.18,128.39c-1.29,0-2.42-.26-3.38-.77-.96-.51-1.71-1.22-2.24-2.12-.53-.9-.79-1.92-.79-3.06s.26-2.18.77-3.08c.51-.89,1.22-1.59,2.13-2.1s1.94-.76,3.1-.76,2.14.25,3.02.74c.88.49,1.58,1.19,2.09,2.09.51.9.76,1.96.76,3.17,0,.12,0,.25-.01.39,0,.15-.02.28-.03.41h-9.67v-1.8h8.24l-1.07.57c.01-.67-.12-1.25-.41-1.76-.29-.51-.68-.91-1.18-1.2-.5-.29-1.08-.43-1.73-.43s-1.25.15-1.75.43c-.5.29-.89.69-1.17,1.21-.28.51-.42,1.12-.42,1.81v.43c0,.7.16,1.31.48,1.85.32.54.77.95,1.35,1.24s1.25.43,2,.43c.65,0,1.24-.1,1.76-.3.52-.2.98-.52,1.39-.96l1.46,1.67c-.52.61-1.18,1.08-1.97,1.4-.79.33-1.69.49-2.71.49Z"/>
            <path class="cls-1" d="M367.4,128.39c-.97,0-1.9-.13-2.79-.38-.89-.25-1.6-.56-2.12-.92l1.04-2.06c.52.33,1.14.61,1.87.83.72.22,1.45.33,2.17.33.85,0,1.47-.12,1.86-.35.38-.23.58-.54.58-.93,0-.32-.13-.56-.39-.73s-.6-.29-1.02-.38-.89-.17-1.4-.24c-.51-.07-1.03-.17-1.54-.29s-.98-.3-1.4-.54c-.42-.24-.76-.56-1.02-.97s-.39-.94-.39-1.61c0-.74.21-1.38.63-1.92.42-.54,1.01-.96,1.77-1.26.76-.3,1.66-.45,2.71-.45.78,0,1.57.09,2.37.26s1.46.42,1.98.74l-1.04,2.06c-.55-.33-1.1-.56-1.66-.68-.56-.12-1.11-.18-1.66-.18-.83,0-1.44.12-1.84.37s-.6.56-.6.93c0,.35.13.61.39.78s.6.31,1.02.41c.42.1.89.18,1.4.25.51.07,1.02.16,1.53.29.51.13.97.31,1.4.53.43.22.77.54,1.03.95s.39.93.39,1.59c0,.72-.21,1.36-.64,1.89-.43.54-1.03.95-1.81,1.25-.78.3-1.72.45-2.8.45Z"/>
          </g>
          <g class="cls-2">
            <path class="cls-1" d="M373.04,118.81v-2.17h7.74v2.17h-7.74ZM378.95,128.39c-1.27,0-2.26-.33-2.96-.99-.7-.66-1.04-1.63-1.04-2.92v-10.41h2.72v10.34c0,.55.14.98.42,1.28.28.3.68.46,1.18.46.61,0,1.12-.16,1.52-.48l.76,1.93c-.32.26-.71.46-1.17.59-.46.13-.94.2-1.43.2Z"/>
          </g>
          <g class="cls-2">
            <path class="cls-1" d="M386.45,128.39c-.87,0-1.63-.15-2.28-.45-.65-.3-1.16-.71-1.51-1.24-.35-.53-.53-1.13-.53-1.79s.16-1.24.47-1.76.82-.93,1.53-1.24c.71-.3,1.65-.46,2.83-.46h3.37v1.8h-3.17c-.93,0-1.55.15-1.87.45-.32.3-.48.66-.48,1.1,0,.49.2.88.59,1.17.39.29.93.43,1.63.43s1.26-.15,1.79-.46c.53-.3.91-.75,1.14-1.35l.46,1.63c-.26.68-.73,1.21-1.4,1.59-.67.38-1.53.57-2.55.57ZM390.1,128.24v-2.35l-.15-.5v-4.11c0-.8-.24-1.42-.72-1.86-.48-.44-1.2-.66-2.17-.66-.65,0-1.29.1-1.92.3s-1.16.49-1.6.85l-1.07-1.98c.62-.48,1.37-.84,2.23-1.08.86-.24,1.76-.36,2.68-.36,1.68,0,2.98.4,3.9,1.21s1.38,2.05,1.38,3.73v6.8h-2.56ZM389.19,115.05c-.35,0-.66-.07-.95-.21s-.54-.3-.76-.5-.44-.37-.64-.51c-.2-.14-.41-.22-.61-.22-.3,0-.55.12-.74.35s-.3.55-.33.96h-1.46c.03-.9.25-1.61.66-2.13.41-.52.97-.78,1.68-.78.35,0,.67.07.96.22.29.14.55.31.77.5.22.19.44.36.64.5.2.15.4.22.59.22.3,0,.55-.11.75-.33.2-.22.3-.52.31-.91h1.46c-.01.84-.23,1.53-.65,2.05-.42.53-.99.79-1.7.79Z"/>
          </g>
          <g class="cls-2">
            <path class="cls-1" d="M400.95,128.39c-1.19,0-2.25-.26-3.17-.77-.93-.51-1.66-1.22-2.2-2.12-.54-.9-.8-1.92-.8-3.06s.27-2.18.8-3.08c.54-.89,1.27-1.59,2.2-2.1.93-.51,1.98-.76,3.17-.76s2.27.25,3.21.76c.93.51,1.67,1.2,2.2,2.09.53.88.79,1.91.79,3.09s-.26,2.17-.79,3.06c-.53.9-1.26,1.6-2.2,2.12-.93.51-2,.77-3.21.77ZM400.95,126.07c.67,0,1.26-.14,1.78-.43s.93-.71,1.23-1.26c.3-.55.45-1.2.45-1.93s-.15-1.4-.45-1.95c-.3-.54-.71-.96-1.23-1.25s-1.11-.43-1.76-.43-1.26.14-1.77.43c-.51.29-.92.71-1.23,1.25-.3.54-.46,1.19-.46,1.95s.15,1.38.46,1.93c.3.55.71.97,1.23,1.26.51.29,1.1.43,1.75.43Z"/>
          </g>
          <g class="cls-2">
            <path class="cls-1" d="M415.14,128.24v-15.21h6.26c1.35,0,2.5.22,3.47.65.96.44,1.71,1.06,2.23,1.87.52.81.78,1.77.78,2.89s-.26,2.08-.78,2.89-1.26,1.43-2.23,1.87c-.96.43-2.12.65-3.47.65h-4.69l1.26-1.33v5.71h-2.83ZM417.96,122.83l-1.26-1.37h4.56c1.25,0,2.18-.26,2.81-.79.63-.53.95-1.27.95-2.23s-.31-1.72-.95-2.24c-.63-.52-1.57-.78-2.81-.78h-4.56l1.26-1.39v8.8Z"/>
          </g>
          <g class="cls-2">
            <path class="cls-1" d="M429.45,128.24v-11.6h2.59v3.19l-.3-.93c.35-.78.89-1.38,1.64-1.78.75-.41,1.68-.61,2.79-.61v2.59c-.12-.03-.23-.05-.33-.05-.1,0-.2-.01-.3-.01-1.03,0-1.85.3-2.46.9s-.91,1.5-.91,2.68v5.63h-2.72Z"/>
          </g>
          <g class="cls-2">
            <path class="cls-1" d="M439.21,114.73c-.51,0-.92-.16-1.25-.48s-.49-.7-.49-1.15.16-.85.49-1.16.74-.47,1.25-.47.92.15,1.25.45c.33.3.49.67.49,1.12,0,.48-.16.88-.48,1.21-.32.33-.74.49-1.26.49ZM437.84,128.24v-11.6h2.72v11.6h-2.72Z"/>
            <path class="cls-1" d="M447.27,128.39c-.97,0-1.9-.13-2.79-.38-.89-.25-1.6-.56-2.12-.92l1.04-2.06c.52.33,1.14.61,1.87.83.72.22,1.45.33,2.17.33.85,0,1.47-.12,1.86-.35.38-.23.58-.54.58-.93,0-.32-.13-.56-.39-.73s-.6-.29-1.02-.38-.89-.17-1.4-.24c-.51-.07-1.03-.17-1.54-.29s-.98-.3-1.4-.54c-.42-.24-.76-.56-1.02-.97s-.39-.94-.39-1.61c0-.74.21-1.38.63-1.92.42-.54,1.01-.96,1.77-1.26.76-.3,1.66-.45,2.71-.45.78,0,1.57.09,2.37.26s1.46.42,1.98.74l-1.04,2.06c-.55-.33-1.1-.56-1.66-.68-.56-.12-1.11-.18-1.66-.18-.83,0-1.44.12-1.84.37s-.6.56-.6.93c0,.35.13.61.39.78s.6.31,1.02.41c.42.1.89.18,1.4.25.51.07,1.02.16,1.53.29.51.13.97.31,1.4.53.43.22.77.54,1.03.95s.39.93.39,1.59c0,.72-.21,1.36-.64,1.89-.43.54-1.03.95-1.81,1.25-.78.3-1.72.45-2.8.45Z"/>
            <path class="cls-1" d="M455.81,114.73c-.51,0-.92-.16-1.25-.48s-.49-.7-.49-1.15.16-.85.49-1.16.74-.47,1.25-.47.92.15,1.25.45c.33.3.49.67.49,1.12,0,.48-.16.88-.48,1.21-.32.33-.74.49-1.26.49ZM454.45,128.24v-11.6h2.72v11.6h-2.72Z"/>
            <path class="cls-1" d="M465.51,128.39c-1.19,0-2.25-.26-3.17-.77s-1.66-1.22-2.19-2.12c-.54-.9-.8-1.92-.8-3.06s.27-2.18.8-3.08c.54-.89,1.27-1.59,2.19-2.1s1.98-.76,3.17-.76,2.27.25,3.21.76,1.67,1.2,2.19,2.09c.53.88.79,1.91.79,3.09s-.26,2.17-.79,3.06c-.53.9-1.26,1.6-2.19,2.12s-2,.77-3.21.77ZM465.51,126.07c.67,0,1.26-.14,1.78-.43s.93-.71,1.23-1.26c.3-.55.45-1.2.45-1.93s-.15-1.4-.45-1.95c-.3-.54-.71-.96-1.23-1.25s-1.11-.43-1.76-.43-1.26.14-1.77.43c-.51.29-.92.71-1.23,1.25-.3.54-.46,1.19-.46,1.95s.15,1.38.46,1.93c.3.55.71.97,1.23,1.26.51.29,1.1.43,1.75.43Z"/>
            <path class="cls-1" d="M473.87,128.24v-11.6h2.59v3.13l-.46-.96c.41-.74,1-1.31,1.77-1.71.77-.4,1.67-.6,2.68-.6.93,0,1.76.18,2.49.54.73.36,1.31.92,1.73,1.66s.63,1.71.63,2.88v6.65h-2.72v-6.3c0-1.03-.24-1.8-.73-2.3-.49-.51-1.16-.76-2.03-.76-.64,0-1.2.13-1.69.39-.49.26-.87.65-1.14,1.16-.27.51-.4,1.16-.4,1.94v5.87h-2.72Z"/>
            <path class="cls-1" d="M491.82,128.39c-.87,0-1.63-.15-2.28-.45-.65-.3-1.16-.71-1.51-1.24-.35-.53-.53-1.13-.53-1.79s.16-1.24.47-1.76.82-.93,1.53-1.24c.71-.3,1.65-.46,2.83-.46h3.37v1.8h-3.17c-.93,0-1.55.15-1.87.45-.32.3-.48.66-.48,1.1,0,.49.2.88.59,1.17.39.29.93.43,1.63.43s1.26-.15,1.79-.46c.53-.3.91-.75,1.14-1.35l.46,1.63c-.26.68-.73,1.21-1.4,1.59-.67.38-1.53.57-2.55.57ZM495.47,128.24v-2.35l-.15-.5v-4.11c0-.8-.24-1.42-.72-1.86-.48-.44-1.2-.66-2.17-.66-.65,0-1.29.1-1.92.3s-1.16.49-1.6.85l-1.07-1.98c.62-.48,1.37-.84,2.23-1.08.86-.24,1.76-.36,2.68-.36,1.68,0,2.98.4,3.9,1.21s1.38,2.05,1.38,3.73v6.8h-2.56Z"/>
            <path class="cls-1" d="M501.08,128.24v-16.12h2.72v16.12h-2.72Z"/>
          </g>
        </g>
      </g>
    </g>
  </g>
</svg>