<svg width="976" height="256" viewBox="0 0 976 256" fill="none" xmlns="http://www.w3.org/2000/svg">
<path d="M64.8033 75.1018C74.1135 60.5996 93.5826 56.2973 108.266 65.5022L187.515 115.161C219.001 134.896 219.002 180.244 187.518 199.981H187.52C187.519 199.982 187.517 199.982 187.514 199.984C187.509 199.987 187.501 199.993 187.491 199.999C187.47 200.012 187.438 200.031 187.397 200.057C187.314 200.108 187.19 200.184 187.029 200.284C186.706 200.485 186.23 200.781 185.618 201.163C184.392 201.927 182.618 203.035 180.425 204.414L178.824 205.421L178.838 205.436L108.266 249.659C93.566 258.864 74.1128 254.545 64.8023 240.059C55.6457 225.794 59.7187 206.98 73.8443 197.621L74.524 197.183L109.174 175.473C122.249 167.288 122.453 148.599 109.787 140.086L109.174 139.689L74.524 117.979H74.523C59.8341 108.78 55.5007 89.5772 64.8033 75.1028V75.1018Z" stroke="#F2F0F0" stroke-width="3" stroke-miterlimit="10"/>
<path d="M104.363 6.33984C119.063 -2.86496 138.516 1.4537 147.827 15.9395V15.9404C156.985 30.2049 152.913 49.0201 138.787 58.3789L138.106 58.8174L103.456 80.5273C90.1743 88.842 90.1745 107.996 103.456 116.311L138.106 138.021H138.107C152.796 147.22 157.131 166.407 147.827 180.898C138.517 195.401 119.048 199.703 104.364 190.498L25.1152 140.839C-6.37188 121.103 -6.37183 75.7524 25.1152 56.0166L104.364 6.34082L104.363 6.33984Z" stroke="#FBE200" stroke-width="3" stroke-miterlimit="10"/>
<path d="M627.262 115.54C625.65 115.333 619.691 113.367 618.08 112.554C612.165 109.567 610.85 102.026 611.145 95.9641C611.264 93.5393 612.934 83.559 614.28 82.5832C615.477 81.7256 617.119 81.7404 618.523 81.6073C628.725 80.6906 660.721 80.5576 669.4 83.8104C677.222 86.7379 680.903 96.1268 681.539 103.815L681.406 173.174C680.253 176.545 655.191 181.365 650.445 182.179C599.775 190.858 551.648 184.012 538.578 126.836C520.569 48.0885 570.204 -21.6993 654.763 6.30453C658.829 7.65002 679.558 16.5509 680.519 19.6707C682.205 26.3981 670.273 45.4863 664.388 46.7135C660.573 47.5119 655.517 43.1649 651.717 41.4942C596.108 17.098 572.777 51.8588 576.414 104.628C579.016 142.435 599.095 157.886 636.724 152.785C639.371 152.43 643.614 150.996 644.161 148.068C645.004 143.677 644.797 123.406 644.221 118.497C644.073 117.226 644.117 116.265 642.875 115.496C637.907 115.052 632.052 116.102 627.232 115.496L627.262 115.54ZM891.775 126.319C893.653 123.938 913.007 125.417 917.532 125.136C960.528 122.475 981.021 90.4935 974.338 49.1383C967.226 5.16605 926.802 2.12021 890.518 2.53421C880.908 2.65249 866.728 2.51942 857.547 3.45091C855.861 3.62833 851.662 4.14584 851.13 5.72789L851.189 180.109C852.298 183.849 863.416 182.386 867.083 182.46C870.75 182.534 872.953 182.563 876.664 182.46C879.651 182.386 888.138 183.155 889.912 181.38C893.387 177.92 888.552 130.4 891.775 126.319ZM914.013 33.85C915.713 33.85 922.736 36.9254 924.436 38.197C937.3 47.8667 937.595 79.2565 925.323 89.4733C918.862 94.8552 902.953 95.8015 894.85 94.7073C893.697 94.5595 890.977 93.5984 890.977 92.4895V36.0087C890.977 35.7278 892.13 34.6928 891.849 33.8352H914.013V33.85ZM750.647 148.556C748.34 148.556 749.346 144.328 749.346 143.781V109.892L750.647 108.591H805.398C806.004 108.591 807.542 107.423 807.867 106.654C809.76 102.13 810.351 80.7498 807.128 77.3195C805.827 75.9445 802.914 75.6931 801.08 75.5453C784.876 74.1998 767.34 76.876 751.076 76.0184C749.627 75.22 749.494 74.0519 749.301 72.5734C748.4 65.6094 749.257 38.5518 749.257 38.5518C749.257 38.5518 794.353 39.2172 810.647 38.2413C814.003 38.0343 817.315 37.2803 820.657 36.955C823.451 31.233 826.319 9.80871 822.342 5.60961L710.741 5.23997L709.321 8.1675V161.198C710.208 174.268 718.06 181.129 730.76 182.341C749.05 184.086 787.98 184.234 806.152 182.341C825.994 180.271 828.981 165.989 828.419 148.556H750.647ZM420.84 148.956C421.654 146.605 422.689 143.086 425.616 143.307L479.376 143.529C483.265 144.712 485.912 161.435 487.538 165.782C493.585 182.046 500.653 184.677 517.774 183.317C520.791 183.081 532.057 181.351 532.871 178.364C531.466 170.661 528.819 163.046 526.468 155.535C520.155 135.471 512.88 115.407 506.493 95.5649C496.779 65.4172 487.863 34.7963 476.996 5.15126C475.177 3.36221 465.493 2.72644 462.225 2.54901C457.642 2.29766 434.103 2.47507 431.575 4.54505L374 176.9C373.852 180.434 377.829 181.853 380.594 182.371C385.666 183.317 407.903 184.352 411.141 181.351C413.181 179.458 419.184 153.864 420.87 148.941L420.84 148.956ZM471.156 109.7C470.446 111.578 469.204 111.859 467.415 112.095C457.893 113.382 445.266 111.208 435.404 111.873C433.512 111.164 432.639 109.463 433.201 107.497C439.47 89.3993 444.453 70.8287 449.347 52.3172C450.323 48.6356 448.992 44.7913 453.901 42.5439L471.17 109.7H471.156ZM363.058 14.7766C361.21 12.3962 336.932 4.53027 332.585 3.53964C296.095 -4.87334 244.079 4.6042 241.018 49.9515C237.928 95.8459 281.694 100.193 312.255 115.984C322.088 121.07 329.998 129.542 325.488 141.371C317.489 162.381 281.117 150.064 266.213 143.781C255.124 139.108 252.669 131.435 243.65 144.683C240.545 149.251 234.927 160.695 237.13 165.929C239.289 171.03 265.769 180.005 271.95 181.499C304.922 189.498 352.28 186.644 365.942 149.665C375.567 123.613 364.241 98.2855 341.25 84.4018C326.538 75.5305 301.876 70.7843 288.879 61.1737C275.676 51.43 283.882 34.7667 298.919 33.0959C311.22 31.7357 323.123 35.1955 334.67 38.8327C338.559 40.0599 348.643 45.2497 351.659 44.1556C351.91 44.0668 355.059 40.9619 355.414 40.5183C358.785 36.2748 366.592 19.3158 363.058 14.7766Z" fill="#F2F0F0"/>
<path d="M249.244 248.575C247.115 248.575 245.079 248.255 243.136 247.617C241.193 246.951 239.663 246.1 238.545 245.062L240.022 241.948C241.086 242.879 242.444 243.651 244.094 244.263C245.744 244.875 247.461 245.181 249.244 245.181C250.867 245.181 252.185 244.995 253.196 244.623C254.207 244.25 254.952 243.744 255.431 243.106C255.91 242.44 256.15 241.695 256.15 240.87C256.15 239.912 255.831 239.14 255.192 238.555C254.58 237.969 253.768 237.503 252.757 237.157C251.772 236.785 250.681 236.465 249.483 236.199C248.286 235.933 247.075 235.627 245.85 235.281C244.653 234.908 243.548 234.443 242.537 233.884C241.552 233.325 240.754 232.58 240.142 231.648C239.53 230.69 239.223 229.466 239.223 227.975C239.223 226.538 239.596 225.221 240.341 224.023C241.113 222.799 242.284 221.828 243.854 221.109C245.451 220.364 247.474 219.991 249.922 219.991C251.546 219.991 253.156 220.204 254.753 220.63C256.35 221.056 257.734 221.668 258.905 222.466L257.587 225.66C256.39 224.862 255.125 224.289 253.795 223.943C252.464 223.571 251.173 223.385 249.922 223.385C248.352 223.385 247.061 223.584 246.05 223.983C245.039 224.383 244.293 224.915 243.814 225.58C243.362 226.246 243.136 226.991 243.136 227.816C243.136 228.8 243.442 229.586 244.054 230.171C244.693 230.757 245.504 231.222 246.489 231.568C247.5 231.914 248.605 232.234 249.803 232.526C251 232.793 252.198 233.099 253.395 233.445C254.62 233.791 255.724 234.243 256.709 234.802C257.72 235.361 258.532 236.106 259.144 237.038C259.756 237.969 260.062 239.167 260.062 240.63C260.062 242.041 259.676 243.358 258.905 244.583C258.133 245.78 256.935 246.752 255.312 247.497C253.715 248.215 251.692 248.575 249.244 248.575Z" fill="#F2F0F0"/>
<path d="M265.336 248.255V227.097H269.168V248.255H265.336ZM267.252 223.025C266.507 223.025 265.881 222.786 265.375 222.307C264.896 221.828 264.657 221.242 264.657 220.55C264.657 219.832 264.896 219.233 265.375 218.754C265.881 218.275 266.507 218.035 267.252 218.035C267.997 218.035 268.609 218.275 269.088 218.754C269.594 219.206 269.847 219.778 269.847 220.47C269.847 221.189 269.607 221.801 269.128 222.307C268.649 222.786 268.024 223.025 267.252 223.025Z" fill="#F2F0F0"/>
<path d="M282.553 248.495C280.797 248.495 279.12 248.255 277.523 247.776C275.953 247.297 274.716 246.712 273.811 246.02L275.408 242.986C276.312 243.598 277.43 244.117 278.761 244.543C280.092 244.969 281.449 245.181 282.833 245.181C284.616 245.181 285.893 244.929 286.665 244.423C287.464 243.917 287.863 243.212 287.863 242.307C287.863 241.642 287.623 241.123 287.144 240.75C286.665 240.378 286.027 240.098 285.228 239.912C284.456 239.726 283.591 239.566 282.633 239.433C281.675 239.273 280.717 239.087 279.759 238.874C278.801 238.634 277.923 238.315 277.124 237.916C276.326 237.49 275.687 236.918 275.208 236.199C274.729 235.454 274.489 234.469 274.489 233.245C274.489 231.968 274.849 230.85 275.567 229.892C276.286 228.934 277.297 228.202 278.601 227.696C279.932 227.164 281.502 226.898 283.312 226.898C284.696 226.898 286.093 227.071 287.504 227.417C288.941 227.736 290.112 228.202 291.017 228.814L289.38 231.848C288.422 231.209 287.424 230.77 286.386 230.53C285.348 230.291 284.31 230.171 283.272 230.171C281.595 230.171 280.344 230.451 279.519 231.009C278.694 231.542 278.282 232.234 278.282 233.085C278.282 233.804 278.521 234.363 279 234.762C279.506 235.135 280.145 235.427 280.917 235.64C281.715 235.853 282.593 236.04 283.551 236.199C284.51 236.332 285.468 236.519 286.426 236.758C287.384 236.971 288.249 237.277 289.021 237.676C289.819 238.075 290.458 238.634 290.937 239.353C291.442 240.072 291.695 241.03 291.695 242.227C291.695 243.505 291.323 244.609 290.577 245.541C289.832 246.472 288.781 247.204 287.424 247.736C286.066 248.242 284.443 248.495 282.553 248.495Z" fill="#F2F0F0"/>
<path d="M303.75 248.495C301.621 248.495 299.971 247.923 298.8 246.778C297.629 245.634 297.044 243.997 297.044 241.868V222.466H300.876V241.708C300.876 242.853 301.156 243.731 301.715 244.343C302.3 244.955 303.125 245.261 304.19 245.261C305.387 245.261 306.385 244.929 307.184 244.263L308.381 247.018C307.796 247.523 307.091 247.896 306.266 248.136C305.467 248.375 304.629 248.495 303.75 248.495ZM293.451 230.251V227.097H306.944V230.251H293.451Z" fill="#F2F0F0"/>
<path d="M321.734 248.495C319.472 248.495 317.476 248.029 315.746 247.098C314.043 246.166 312.712 244.889 311.754 243.265C310.823 241.642 310.357 239.779 310.357 237.676C310.357 235.574 310.809 233.711 311.714 232.087C312.646 230.464 313.91 229.2 315.507 228.295C317.13 227.363 318.953 226.898 320.976 226.898C323.025 226.898 324.835 227.35 326.405 228.255C327.975 229.16 329.2 230.437 330.078 232.087C330.983 233.711 331.435 235.614 331.435 237.796C331.435 237.956 331.422 238.142 331.395 238.355C331.395 238.568 331.382 238.767 331.355 238.954H313.351V236.199H329.359L327.802 237.157C327.829 235.8 327.549 234.589 326.964 233.524C326.378 232.46 325.567 231.635 324.529 231.049C323.517 230.437 322.333 230.131 320.976 230.131C319.645 230.131 318.461 230.437 317.423 231.049C316.385 231.635 315.573 232.473 314.988 233.564C314.402 234.629 314.109 235.853 314.109 237.237V237.876C314.109 239.286 314.429 240.551 315.067 241.668C315.733 242.76 316.651 243.611 317.822 244.223C318.993 244.835 320.337 245.141 321.854 245.141C323.105 245.141 324.236 244.929 325.247 244.503C326.285 244.077 327.19 243.438 327.962 242.587L330.078 245.062C329.12 246.179 327.922 247.031 326.485 247.617C325.074 248.202 323.491 248.495 321.734 248.495Z" fill="#F2F0F0"/>
<path d="M363.224 226.898C364.928 226.898 366.431 227.23 367.735 227.896C369.04 228.561 370.051 229.572 370.769 230.93C371.515 232.287 371.887 234.004 371.887 236.079V248.255H368.055V236.519C368.055 234.469 367.576 232.926 366.618 231.888C365.66 230.85 364.316 230.331 362.586 230.331C361.308 230.331 360.19 230.597 359.232 231.129C358.274 231.661 357.529 232.447 356.997 233.485C356.491 234.523 356.238 235.813 356.238 237.357V248.255H352.406V236.519C352.406 234.469 351.927 232.926 350.969 231.888C350.037 230.85 348.693 230.331 346.937 230.331C345.686 230.331 344.581 230.597 343.623 231.129C342.665 231.661 341.92 232.447 341.388 233.485C340.855 234.523 340.589 235.813 340.589 237.357V248.255H336.757V227.097H340.429V232.726L339.831 231.289C340.496 229.905 341.521 228.827 342.905 228.055C344.288 227.284 345.899 226.898 347.735 226.898C349.758 226.898 351.501 227.403 352.965 228.415C354.428 229.399 355.387 230.903 355.839 232.926L354.282 232.287C354.921 230.663 356.039 229.359 357.635 228.375C359.232 227.39 361.095 226.898 363.224 226.898Z" fill="#F2F0F0"/>
<path d="M392.073 248.255V243.784L391.873 242.946V235.321C391.873 233.697 391.394 232.447 390.436 231.568C389.505 230.663 388.094 230.211 386.205 230.211C384.954 230.211 383.729 230.424 382.532 230.85C381.334 231.249 380.323 231.795 379.498 232.487L377.901 229.612C378.992 228.734 380.296 228.069 381.813 227.616C383.357 227.137 384.967 226.898 386.644 226.898C389.545 226.898 391.78 227.603 393.35 229.013C394.921 230.424 395.706 232.58 395.706 235.481V248.255H392.073ZM385.127 248.495C383.556 248.495 382.172 248.229 380.975 247.696C379.804 247.164 378.899 246.432 378.26 245.501C377.621 244.543 377.302 243.465 377.302 242.267C377.302 241.123 377.568 240.085 378.101 239.153C378.659 238.222 379.551 237.477 380.775 236.918C382.026 236.359 383.703 236.079 385.805 236.079H392.512V238.834H385.965C384.049 238.834 382.758 239.153 382.093 239.792C381.427 240.431 381.095 241.203 381.095 242.107C381.095 243.145 381.507 243.984 382.332 244.623C383.157 245.235 384.302 245.541 385.765 245.541C387.203 245.541 388.453 245.221 389.518 244.583C390.609 243.944 391.394 243.012 391.873 241.788L392.632 244.423C392.126 245.674 391.235 246.672 389.957 247.417C388.68 248.136 387.069 248.495 385.127 248.495Z" fill="#F2F0F0"/>
<path d="M422.262 248.495C420.212 248.495 418.376 248.042 416.752 247.138C415.156 246.233 413.891 244.969 412.96 243.345C412.029 241.722 411.563 239.832 411.563 237.676C411.563 235.521 412.029 233.644 412.96 232.047C413.891 230.424 415.156 229.16 416.752 228.255C418.376 227.35 420.212 226.898 422.262 226.898C424.045 226.898 425.655 227.297 427.092 228.095C428.529 228.894 429.674 230.091 430.525 231.688C431.404 233.285 431.843 235.281 431.843 237.676C431.843 240.072 431.417 242.068 430.565 243.664C429.74 245.261 428.609 246.472 427.172 247.297C425.735 248.096 424.098 248.495 422.262 248.495ZM422.581 245.141C423.912 245.141 425.109 244.835 426.174 244.223C427.265 243.611 428.117 242.746 428.729 241.628C429.368 240.484 429.687 239.167 429.687 237.676C429.687 236.159 429.368 234.855 428.729 233.764C428.117 232.646 427.265 231.781 426.174 231.169C425.109 230.557 423.912 230.251 422.581 230.251C421.224 230.251 420.013 230.557 418.948 231.169C417.884 231.781 417.032 232.646 416.393 233.764C415.754 234.855 415.435 236.159 415.435 237.676C415.435 239.167 415.754 240.484 416.393 241.628C417.032 242.746 417.884 243.611 418.948 244.223C420.013 244.835 421.224 245.141 422.581 245.141ZM429.807 248.255V242.547L430.046 237.636L429.647 232.726V218.634H433.479V248.255H429.807Z" fill="#F2F0F0"/>
<path d="M450.152 248.495C447.89 248.495 445.894 248.029 444.164 247.098C442.461 246.166 441.13 244.889 440.172 243.265C439.24 241.642 438.775 239.779 438.775 237.676C438.775 235.574 439.227 233.711 440.132 232.087C441.063 230.464 442.327 229.2 443.924 228.295C445.548 227.363 447.371 226.898 449.394 226.898C451.443 226.898 453.253 227.35 454.823 228.255C456.393 229.16 457.617 230.437 458.496 232.087C459.4 233.711 459.853 235.614 459.853 237.796C459.853 237.956 459.84 238.142 459.813 238.355C459.813 238.568 459.8 238.767 459.773 238.954H441.769V236.199H457.777L456.22 237.157C456.247 235.8 455.967 234.589 455.382 233.524C454.796 232.46 453.984 231.635 452.946 231.049C451.935 230.437 450.751 230.131 449.394 230.131C448.063 230.131 446.878 230.437 445.841 231.049C444.803 231.635 443.991 232.473 443.405 233.564C442.82 234.629 442.527 235.853 442.527 237.237V237.876C442.527 239.286 442.846 240.551 443.485 241.668C444.151 242.76 445.069 243.611 446.24 244.223C447.411 244.835 448.755 245.141 450.272 245.141C451.523 245.141 452.654 244.929 453.665 244.503C454.703 244.077 455.608 243.438 456.38 242.587L458.496 245.062C457.537 246.179 456.34 247.031 454.903 247.617C453.492 248.202 451.909 248.495 450.152 248.495Z" fill="#F2F0F0"/>
<path d="M472.223 248.255L484.878 220.311H488.83L501.525 248.255H497.333L486.035 222.546H487.632L476.335 248.255H472.223ZM477.612 241.269L478.69 238.075H494.419L495.576 241.269H477.612Z" fill="#F2F0F0"/>
<path d="M516.352 248.495C514.596 248.495 512.986 248.096 511.522 247.297C510.085 246.472 508.927 245.261 508.049 243.664C507.197 242.068 506.771 240.072 506.771 237.676C506.771 235.281 507.184 233.285 508.009 231.688C508.86 230.091 510.005 228.894 511.442 228.095C512.906 227.297 514.542 226.898 516.352 226.898C518.428 226.898 520.265 227.35 521.861 228.255C523.458 229.16 524.722 230.424 525.654 232.047C526.585 233.644 527.051 235.521 527.051 237.676C527.051 239.832 526.585 241.722 525.654 243.345C524.722 244.969 523.458 246.233 521.861 247.138C520.265 248.042 518.428 248.495 516.352 248.495ZM505.134 256V227.097H508.807V232.806L508.568 237.716L508.967 242.626V256H505.134ZM516.033 245.141C517.39 245.141 518.601 244.835 519.666 244.223C520.757 243.611 521.609 242.746 522.221 241.628C522.859 240.484 523.179 239.167 523.179 237.676C523.179 236.159 522.859 234.855 522.221 233.764C521.609 232.646 520.757 231.781 519.666 231.169C518.601 230.557 517.39 230.251 516.033 230.251C514.702 230.251 513.491 230.557 512.4 231.169C511.336 231.781 510.484 232.646 509.845 233.764C509.233 234.855 508.927 236.159 508.927 237.676C508.927 239.167 509.233 240.484 509.845 241.628C510.484 242.746 511.336 243.611 512.4 244.223C513.491 244.835 514.702 245.141 516.033 245.141Z" fill="#F2F0F0"/>
<path d="M541.408 248.495C539.279 248.495 537.39 248.029 535.74 247.098C534.089 246.166 532.785 244.889 531.827 243.265C530.869 241.615 530.39 239.752 530.39 237.676C530.39 235.574 530.869 233.711 531.827 232.087C532.785 230.464 534.089 229.2 535.74 228.295C537.39 227.363 539.279 226.898 541.408 226.898C543.511 226.898 545.387 227.363 547.037 228.295C548.714 229.2 550.018 230.464 550.949 232.087C551.908 233.684 552.387 235.547 552.387 237.676C552.387 239.779 551.908 241.642 550.949 243.265C550.018 244.889 548.714 246.166 547.037 247.098C545.387 248.029 543.511 248.495 541.408 248.495ZM541.408 245.141C542.766 245.141 543.977 244.835 545.041 244.223C546.132 243.611 546.984 242.746 547.596 241.628C548.208 240.484 548.514 239.167 548.514 237.676C548.514 236.159 548.208 234.855 547.596 233.764C546.984 232.646 546.132 231.781 545.041 231.169C543.977 230.557 542.766 230.251 541.408 230.251C540.051 230.251 538.84 230.557 537.775 231.169C536.711 231.781 535.859 232.646 535.221 233.764C534.582 234.855 534.262 236.159 534.262 237.676C534.262 239.167 534.582 240.484 535.221 241.628C535.859 242.746 536.711 243.611 537.775 244.223C538.84 244.835 540.051 245.141 541.408 245.141Z" fill="#F2F0F0"/>
<path d="M557.687 248.255V227.097H561.519V248.255H557.687ZM559.603 223.025C558.858 223.025 558.232 222.786 557.727 222.307C557.248 221.828 557.008 221.242 557.008 220.55C557.008 219.832 557.248 219.233 557.727 218.754C558.232 218.275 558.858 218.035 559.603 218.035C560.348 218.035 560.96 218.275 561.439 218.754C561.945 219.206 562.198 219.778 562.198 220.47C562.198 221.189 561.958 221.801 561.479 222.307C561 222.786 560.375 223.025 559.603 223.025Z" fill="#F2F0F0"/>
<path d="M577.899 248.495C575.769 248.495 573.88 248.029 572.23 247.098C570.58 246.166 569.276 244.889 568.318 243.265C567.359 241.615 566.88 239.752 566.88 237.676C566.88 235.574 567.359 233.711 568.318 232.087C569.276 230.464 570.58 229.2 572.23 228.295C573.88 227.363 575.769 226.898 577.899 226.898C580.001 226.898 581.877 227.363 583.527 228.295C585.204 229.2 586.508 230.464 587.44 232.087C588.398 233.684 588.877 235.547 588.877 237.676C588.877 239.779 588.398 241.642 587.44 243.265C586.508 244.889 585.204 246.166 583.527 247.098C581.877 248.029 580.001 248.495 577.899 248.495ZM577.899 245.141C579.256 245.141 580.467 244.835 581.531 244.223C582.623 243.611 583.474 242.746 584.086 241.628C584.698 240.484 585.005 239.167 585.005 237.676C585.005 236.159 584.698 234.855 584.086 233.764C583.474 232.646 582.623 231.781 581.531 231.169C580.467 230.557 579.256 230.251 577.899 230.251C576.541 230.251 575.33 230.557 574.266 231.169C573.201 231.781 572.35 232.646 571.711 233.764C571.072 234.855 570.753 236.159 570.753 237.676C570.753 239.167 571.072 240.484 571.711 241.628C572.35 242.746 573.201 243.611 574.266 244.223C575.33 244.835 576.541 245.141 577.899 245.141Z" fill="#F2F0F0"/>
<path d="M618.032 248.255V243.784L617.832 242.946V235.321C617.832 233.697 617.353 232.447 616.395 231.568C615.464 230.663 614.053 230.211 612.164 230.211C610.913 230.211 609.688 230.424 608.491 230.85C607.293 231.249 606.282 231.795 605.457 232.487L603.86 229.612C604.951 228.734 606.255 228.069 607.772 227.616C609.316 227.137 610.926 226.898 612.603 226.898C615.504 226.898 617.739 227.603 619.309 229.013C620.88 230.424 621.665 232.58 621.665 235.481V248.255H618.032ZM611.086 248.495C609.515 248.495 608.132 248.229 606.934 247.696C605.763 247.164 604.858 246.432 604.219 245.501C603.581 244.543 603.261 243.465 603.261 242.267C603.261 241.123 603.527 240.085 604.06 239.153C604.619 238.222 605.51 237.477 606.734 236.918C607.985 236.359 609.662 236.079 611.764 236.079H618.471V238.834H611.924C610.008 238.834 608.717 239.153 608.052 239.792C607.386 240.431 607.054 241.203 607.054 242.107C607.054 243.145 607.466 243.984 608.291 244.623C609.116 245.235 610.261 245.541 611.724 245.541C613.162 245.541 614.412 245.221 615.477 244.583C616.568 243.944 617.353 243.012 617.832 241.788L618.591 244.423C618.085 245.674 617.194 246.672 615.916 247.417C614.639 248.136 613.029 248.495 611.086 248.495Z" fill="#F2F0F0"/>
<path d="M652.652 248.575C650.496 248.575 648.513 248.229 646.704 247.537C644.894 246.818 643.324 245.82 641.993 244.543C640.662 243.239 639.624 241.722 638.879 239.992C638.134 238.262 637.761 236.359 637.761 234.283C637.761 232.207 638.134 230.304 638.879 228.574C639.624 226.844 640.662 225.341 641.993 224.063C643.35 222.759 644.934 221.761 646.744 221.069C648.553 220.351 650.549 219.991 652.732 219.991C654.941 219.991 656.963 220.351 658.8 221.069C660.636 221.788 662.193 222.866 663.471 224.303L660.995 226.778C659.851 225.66 658.6 224.848 657.243 224.343C655.912 223.81 654.462 223.544 652.891 223.544C651.295 223.544 649.804 223.81 648.42 224.343C647.063 224.875 645.879 225.62 644.867 226.578C643.883 227.536 643.111 228.681 642.552 230.011C642.02 231.316 641.753 232.739 641.753 234.283C641.753 235.8 642.02 237.224 642.552 238.555C643.111 239.859 643.883 241.003 644.867 241.988C645.879 242.946 647.063 243.691 648.42 244.223C649.778 244.756 651.255 245.022 652.852 245.022C654.342 245.022 655.766 244.796 657.123 244.343C658.507 243.864 659.784 243.079 660.955 241.988L663.231 245.022C661.847 246.193 660.224 247.084 658.361 247.696C656.524 248.282 654.621 248.575 652.652 248.575ZM659.399 244.503V234.123H663.231V245.022L659.399 244.503Z" fill="#F2F0F0"/>
<path d="M679.737 248.495C677.475 248.495 675.479 248.029 673.749 247.098C672.045 246.166 670.715 244.889 669.756 243.265C668.825 241.642 668.359 239.779 668.359 237.676C668.359 235.574 668.812 233.711 669.717 232.087C670.648 230.464 671.912 229.2 673.509 228.295C675.133 227.363 676.956 226.898 678.978 226.898C681.028 226.898 682.837 227.35 684.407 228.255C685.978 229.16 687.202 230.437 688.08 232.087C688.985 233.711 689.438 235.614 689.438 237.796C689.438 237.956 689.424 238.142 689.398 238.355C689.398 238.568 689.384 238.767 689.358 238.954H671.353V236.199H687.362L685.805 237.157C685.831 235.8 685.552 234.589 684.966 233.524C684.381 232.46 683.569 231.635 682.531 231.049C681.52 230.437 680.336 230.131 678.978 230.131C677.648 230.131 676.463 230.437 675.425 231.049C674.387 231.635 673.576 232.473 672.99 233.564C672.405 234.629 672.112 235.853 672.112 237.237V237.876C672.112 239.286 672.431 240.551 673.07 241.668C673.735 242.76 674.653 243.611 675.824 244.223C676.995 244.835 678.339 245.141 679.856 245.141C681.107 245.141 682.238 244.929 683.25 244.503C684.288 244.077 685.193 243.438 685.964 242.587L688.08 245.062C687.122 246.179 685.925 247.031 684.487 247.617C683.077 248.202 681.493 248.495 679.737 248.495Z" fill="#F2F0F0"/>
<path d="M700.827 248.495C699.071 248.495 697.394 248.255 695.797 247.776C694.227 247.297 692.989 246.712 692.084 246.02L693.681 242.986C694.586 243.598 695.704 244.117 697.035 244.543C698.365 244.969 699.723 245.181 701.107 245.181C702.89 245.181 704.167 244.929 704.939 244.423C705.737 243.917 706.137 243.212 706.137 242.307C706.137 241.642 705.897 241.123 705.418 240.75C704.939 240.378 704.3 240.098 703.502 239.912C702.73 239.726 701.865 239.566 700.907 239.433C699.949 239.273 698.991 239.087 698.033 238.874C697.075 238.634 696.196 238.315 695.398 237.916C694.6 237.49 693.961 236.918 693.482 236.199C693.003 235.454 692.763 234.469 692.763 233.245C692.763 231.968 693.122 230.85 693.841 229.892C694.56 228.934 695.571 228.202 696.875 227.696C698.206 227.164 699.776 226.898 701.586 226.898C702.97 226.898 704.367 227.071 705.777 227.417C707.215 227.736 708.386 228.202 709.29 228.814L707.654 231.848C706.696 231.209 705.698 230.77 704.66 230.53C703.622 230.291 702.584 230.171 701.546 230.171C699.869 230.171 698.618 230.451 697.793 231.009C696.968 231.542 696.556 232.234 696.556 233.085C696.556 233.804 696.795 234.363 697.274 234.762C697.78 235.135 698.419 235.427 699.19 235.64C699.989 235.853 700.867 236.04 701.825 236.199C702.783 236.332 703.741 236.519 704.699 236.758C705.658 236.971 706.523 237.277 707.294 237.676C708.093 238.075 708.732 238.634 709.211 239.353C709.716 240.072 709.969 241.03 709.969 242.227C709.969 243.505 709.596 244.609 708.851 245.541C708.106 246.472 707.055 247.204 705.698 247.736C704.34 248.242 702.717 248.495 700.827 248.495Z" fill="#F2F0F0"/>
<path d="M722.024 248.495C719.895 248.495 718.245 247.923 717.074 246.778C715.903 245.634 715.318 243.997 715.318 241.868V222.466H719.15V241.708C719.15 242.853 719.429 243.731 719.988 244.343C720.574 244.955 721.399 245.261 722.463 245.261C723.661 245.261 724.659 244.929 725.457 244.263L726.655 247.018C726.07 247.523 725.364 247.896 724.539 248.136C723.741 248.375 722.903 248.495 722.024 248.495ZM711.725 230.251V227.097H725.218V230.251H711.725Z" fill="#F2F0F0"/>
<path d="M744.422 248.255V243.784L744.223 242.946V235.321C744.223 233.697 743.744 232.447 742.786 231.568C741.854 230.663 740.444 230.211 738.554 230.211C737.303 230.211 736.079 230.424 734.881 230.85C733.684 231.249 732.672 231.795 731.847 232.487L730.251 229.612C731.342 228.734 732.646 228.069 734.163 227.616C735.706 227.137 737.317 226.898 738.993 226.898C741.894 226.898 744.13 227.603 745.7 229.013C747.27 230.424 748.055 232.58 748.055 235.481V248.255H744.422ZM737.476 248.495C735.906 248.495 734.522 248.229 733.324 247.696C732.153 247.164 731.249 246.432 730.61 245.501C729.971 244.543 729.652 243.465 729.652 242.267C729.652 241.123 729.918 240.085 730.45 239.153C731.009 238.222 731.901 237.477 733.125 236.918C734.376 236.359 736.052 236.079 738.155 236.079H744.862V238.834H738.315C736.398 238.834 735.108 239.153 734.442 239.792C733.777 240.431 733.444 241.203 733.444 242.107C733.444 243.145 733.857 243.984 734.682 244.623C735.507 245.235 736.651 245.541 738.115 245.541C739.552 245.541 740.803 245.221 741.868 244.583C742.959 243.944 743.744 243.012 744.223 241.788L744.981 244.423C744.476 245.674 743.584 246.672 742.307 247.417C741.029 248.136 739.419 248.495 737.476 248.495Z" fill="#F2F0F0"/>
<path d="M764.21 248.495C762.08 248.495 760.191 248.029 758.541 247.098C756.891 246.166 755.587 244.889 754.629 243.265C753.67 241.615 753.191 239.752 753.191 237.676C753.191 235.574 753.67 233.711 754.629 232.087C755.587 230.464 756.891 229.2 758.541 228.295C760.191 227.363 762.08 226.898 764.21 226.898C766.312 226.898 768.188 227.363 769.838 228.295C771.515 229.2 772.819 230.464 773.751 232.087C774.709 233.684 775.188 235.547 775.188 237.676C775.188 239.779 774.709 241.642 773.751 243.265C772.819 244.889 771.515 246.166 769.838 247.098C768.188 248.029 766.312 248.495 764.21 248.495ZM764.21 245.141C765.567 245.141 766.778 244.835 767.842 244.223C768.934 243.611 769.785 242.746 770.397 241.628C771.009 240.484 771.315 239.167 771.315 237.676C771.315 236.159 771.009 234.855 770.397 233.764C769.785 232.646 768.934 231.781 767.842 231.169C766.778 230.557 765.567 230.251 764.21 230.251C762.852 230.251 761.641 230.557 760.577 231.169C759.512 231.781 758.661 232.646 758.022 233.764C757.383 234.855 757.064 236.159 757.064 237.676C757.064 239.167 757.383 240.484 758.022 241.628C758.661 242.746 759.512 243.611 760.577 244.223C761.641 244.835 762.852 245.141 764.21 245.141Z" fill="#F2F0F0"/>
<path d="M791.768 248.255V220.311H802.666C805.115 220.311 807.204 220.697 808.934 221.468C810.664 222.24 811.994 223.358 812.926 224.822C813.857 226.285 814.323 228.029 814.323 230.051C814.323 232.074 813.857 233.817 812.926 235.281C811.994 236.718 810.664 237.836 808.934 238.634C807.204 239.406 805.115 239.792 802.666 239.792H793.963L795.76 237.916V248.255H791.768ZM795.76 238.315L793.963 236.319H802.546C805.101 236.319 807.031 235.773 808.335 234.682C809.666 233.591 810.331 232.047 810.331 230.051C810.331 228.055 809.666 226.512 808.335 225.421C807.031 224.329 805.101 223.784 802.546 223.784H793.963L795.76 221.788V238.315Z" fill="#F2F0F0"/>
<path d="M819.239 248.255V227.097H822.912V232.846L822.553 231.409C823.138 229.945 824.123 228.827 825.507 228.055C826.891 227.284 828.594 226.898 830.617 226.898V230.61C830.457 230.584 830.298 230.57 830.138 230.57C830.005 230.57 829.872 230.57 829.739 230.57C827.689 230.57 826.066 231.182 824.868 232.407C823.671 233.631 823.072 235.401 823.072 237.716V248.255H819.239Z" fill="#F2F0F0"/>
<path d="M835.34 248.255V227.097H839.173V248.255H835.34ZM837.257 223.025C836.511 223.025 835.886 222.786 835.38 222.307C834.901 221.828 834.662 221.242 834.662 220.55C834.662 219.832 834.901 219.233 835.38 218.754C835.886 218.275 836.511 218.035 837.257 218.035C838.002 218.035 838.614 218.275 839.093 218.754C839.599 219.206 839.851 219.778 839.851 220.47C839.851 221.189 839.612 221.801 839.133 222.307C838.654 222.786 838.028 223.025 837.257 223.025Z" fill="#F2F0F0"/>
<path d="M852.558 248.495C850.802 248.495 849.125 248.255 847.528 247.776C845.958 247.297 844.72 246.712 843.815 246.02L845.412 242.986C846.317 243.598 847.435 244.117 848.766 244.543C850.096 244.969 851.454 245.181 852.838 245.181C854.621 245.181 855.898 244.929 856.67 244.423C857.468 243.917 857.868 243.212 857.868 242.307C857.868 241.642 857.628 241.123 857.149 240.75C856.67 240.378 856.031 240.098 855.233 239.912C854.461 239.726 853.596 239.566 852.638 239.433C851.68 239.273 850.722 239.087 849.764 238.874C848.806 238.634 847.927 238.315 847.129 237.916C846.33 237.49 845.692 236.918 845.213 236.199C844.734 235.454 844.494 234.469 844.494 233.245C844.494 231.968 844.853 230.85 845.572 229.892C846.291 228.934 847.302 228.202 848.606 227.696C849.937 227.164 851.507 226.898 853.317 226.898C854.701 226.898 856.098 227.071 857.508 227.417C858.945 227.736 860.117 228.202 861.021 228.814L859.385 231.848C858.427 231.209 857.429 230.77 856.391 230.53C855.353 230.291 854.315 230.171 853.277 230.171C851.6 230.171 850.349 230.451 849.524 231.009C848.699 231.542 848.287 232.234 848.287 233.085C848.287 233.804 848.526 234.363 849.005 234.762C849.511 235.135 850.15 235.427 850.921 235.64C851.72 235.853 852.598 236.04 853.556 236.199C854.514 236.332 855.472 236.519 856.43 236.758C857.389 236.971 858.254 237.277 859.025 237.676C859.824 238.075 860.463 238.634 860.942 239.353C861.447 240.072 861.7 241.03 861.7 242.227C861.7 243.505 861.327 244.609 860.582 245.541C859.837 246.472 858.786 247.204 857.429 247.736C856.071 248.242 854.448 248.495 852.558 248.495Z" fill="#F2F0F0"/>
<path d="M866.49 248.255V227.097H870.322V248.255H866.49ZM868.406 223.025C867.661 223.025 867.035 222.786 866.53 222.307C866.051 221.828 865.811 221.242 865.811 220.55C865.811 219.832 866.051 219.233 866.53 218.754C867.035 218.275 867.661 218.035 868.406 218.035C869.151 218.035 869.763 218.275 870.242 218.754C870.748 219.206 871.001 219.778 871.001 220.47C871.001 221.189 870.761 221.801 870.282 222.307C869.803 222.786 869.178 223.025 868.406 223.025Z" fill="#F2F0F0"/>
<path d="M886.702 248.495C884.572 248.495 882.683 248.029 881.033 247.098C879.383 246.166 878.079 244.889 877.121 243.265C876.162 241.615 875.683 239.752 875.683 237.676C875.683 235.574 876.162 233.711 877.121 232.087C878.079 230.464 879.383 229.2 881.033 228.295C882.683 227.363 884.572 226.898 886.702 226.898C888.804 226.898 890.68 227.363 892.33 228.295C894.007 229.2 895.311 230.464 896.243 232.087C897.201 233.684 897.68 235.547 897.68 237.676C897.68 239.779 897.201 241.642 896.243 243.265C895.311 244.889 894.007 246.166 892.33 247.098C890.68 248.029 888.804 248.495 886.702 248.495ZM886.702 245.141C888.059 245.141 889.27 244.835 890.334 244.223C891.425 243.611 892.277 242.746 892.889 241.628C893.501 240.484 893.807 239.167 893.807 237.676C893.807 236.159 893.501 234.855 892.889 233.764C892.277 232.646 891.425 231.781 890.334 231.169C889.27 230.557 888.059 230.251 886.702 230.251C885.344 230.251 884.133 230.557 883.069 231.169C882.004 231.781 881.152 232.646 880.514 233.764C879.875 234.855 879.556 236.159 879.556 237.676C879.556 239.167 879.875 240.484 880.514 241.628C881.152 242.746 882.004 243.611 883.069 244.223C884.133 244.835 885.344 245.141 886.702 245.141Z" fill="#F2F0F0"/>
<path d="M914.278 226.898C916.008 226.898 917.524 227.23 918.829 227.896C920.159 228.561 921.197 229.572 921.942 230.93C922.688 232.287 923.06 234.004 923.06 236.079V248.255H919.228V236.519C919.228 234.469 918.722 232.926 917.711 231.888C916.726 230.85 915.329 230.331 913.519 230.331C912.162 230.331 910.977 230.597 909.966 231.129C908.955 231.661 908.17 232.447 907.611 233.485C907.079 234.523 906.812 235.813 906.812 237.357V248.255H902.98V227.097H906.653V232.806L906.054 231.289C906.746 229.905 907.81 228.827 909.248 228.055C910.685 227.284 912.361 226.898 914.278 226.898Z" fill="#F2F0F0"/>
<path d="M943.287 248.255V243.784L943.087 242.946V235.321C943.087 233.697 942.608 232.447 941.65 231.568C940.718 230.663 939.308 230.211 937.418 230.211C936.167 230.211 934.943 230.424 933.746 230.85C932.548 231.249 931.537 231.795 930.712 232.487L929.115 229.612C930.206 228.734 931.51 228.069 933.027 227.616C934.571 227.137 936.181 226.898 937.857 226.898C940.758 226.898 942.994 227.603 944.564 229.013C946.134 230.424 946.92 232.58 946.92 235.481V248.255H943.287ZM936.34 248.495C934.77 248.495 933.386 248.229 932.189 247.696C931.018 247.164 930.113 246.432 929.474 245.501C928.835 244.543 928.516 243.465 928.516 242.267C928.516 241.123 928.782 240.085 929.314 239.153C929.873 238.222 930.765 237.477 931.989 236.918C933.24 236.359 934.917 236.079 937.019 236.079H943.726V238.834H937.179C935.263 238.834 933.972 239.153 933.306 239.792C932.641 240.431 932.308 241.203 932.308 242.107C932.308 243.145 932.721 243.984 933.546 244.623C934.371 245.235 935.515 245.541 936.979 245.541C938.416 245.541 939.667 245.221 940.732 244.583C941.823 243.944 942.608 243.012 943.087 241.788L943.846 244.423C943.34 245.674 942.448 246.672 941.171 247.417C939.893 248.136 938.283 248.495 936.34 248.495Z" fill="#F2F0F0"/>
<path d="M954.012 248.255V218.634H957.844V248.255H954.012Z" fill="#F2F0F0"/>
</svg>
