<svg xmlns="http://www.w3.org/2000/svg" xmlns:xlink="http://www.w3.org/1999/xlink" width="471" zoomAndPan="magnify" viewBox="0 0 353.25 106.499997" height="142" preserveAspectRatio="xMidYMid meet" version="1.2"><defs><clipPath id="ac7b6c8bc0"><path d="M 5.871094 0 L 282.929688 0 L 282.929688 69.398438 L 5.871094 69.398438 Z M 5.871094 0 "/></clipPath><clipPath id="87338c6540"><path d="M 53.226562 5.527344 C 52.535156 4.636719 43.441406 1.6875 41.8125 1.316406 C 28.148438 -1.832031 8.660156 1.71875 7.515625 18.695312 C 6.355469 35.894531 22.75 37.519531 34.195312 43.4375 C 37.878906 45.339844 40.84375 48.515625 39.152344 52.945312 C 36.15625 60.816406 22.527344 56.203125 16.953125 53.847656 C 12.796875 52.097656 11.878906 49.222656 8.5 54.1875 C 7.332031 55.898438 5.230469 60.183594 6.058594 62.144531 C 6.867188 64.054688 16.789062 67.417969 19.101562 67.976562 C 31.449219 70.972656 49.1875 69.902344 54.304688 56.050781 C 57.910156 46.292969 53.667969 36.808594 45.058594 31.605469 C 39.546875 28.285156 30.308594 26.503906 25.441406 22.90625 C 20.496094 19.257812 23.570312 13.015625 29.203125 12.390625 C 33.808594 11.878906 38.269531 13.175781 42.59375 14.539062 C 44.050781 14.996094 47.828125 16.941406 48.957031 16.53125 C 49.050781 16.5 50.230469 15.335938 50.363281 15.167969 C 51.625 13.578125 54.550781 7.226562 53.226562 5.527344 M 93.714844 41.082031 C 93.449219 41.785156 92.984375 41.890625 92.316406 41.980469 C 88.75 42.460938 84.019531 41.648438 80.324219 41.894531 C 79.617188 41.628906 79.289062 41 79.5 40.257812 C 81.847656 33.476562 83.714844 26.523438 85.546875 19.589844 C 85.914062 18.210938 85.410156 16.769531 87.253906 15.929688 Z M 74.871094 55.78125 C 75.175781 54.898438 75.5625 53.582031 76.660156 53.664062 L 96.796875 53.75 C 98.25 54.191406 99.242188 60.453125 99.851562 62.082031 C 102.117188 68.175781 104.769531 69.160156 111.179688 68.652344 C 112.308594 68.5625 116.527344 67.914062 116.832031 66.796875 C 116.304688 63.910156 115.316406 61.058594 114.433594 58.246094 C 112.070312 50.730469 109.34375 43.214844 106.953125 35.78125 C 103.3125 24.488281 99.972656 13.019531 95.902344 1.917969 C 95.222656 1.246094 91.59375 1.007812 90.371094 0.941406 C 88.652344 0.851562 79.835938 0.914062 78.890625 1.6875 L 57.3125 66.253906 C 57.257812 67.578125 58.746094 68.109375 59.785156 68.300781 C 61.683594 68.65625 70.011719 69.042969 71.226562 67.921875 C 71.988281 67.210938 74.238281 57.625 74.871094 55.78125 M 198.40625 55.636719 C 197.539062 55.636719 197.917969 54.054688 197.917969 53.847656 L 197.917969 41.15625 L 198.40625 40.667969 L 218.914062 40.667969 C 219.140625 40.667969 219.714844 40.230469 219.835938 39.941406 C 220.546875 38.246094 220.769531 30.238281 219.558594 28.953125 C 219.074219 28.4375 217.980469 28.34375 217.296875 28.289062 C 211.226562 27.785156 204.65625 28.789062 198.566406 28.464844 C 198.023438 28.167969 197.972656 27.730469 197.902344 27.175781 C 197.5625 24.566406 197.882812 14.433594 197.882812 14.433594 C 197.882812 14.433594 214.777344 14.683594 220.878906 14.316406 C 222.136719 14.238281 223.375 13.957031 224.628906 13.835938 C 225.675781 11.691406 226.75 3.667969 225.257812 2.09375 L 183.457031 1.953125 L 182.925781 3.050781 L 182.929688 60.371094 C 183.257812 65.269531 186.203125 67.835938 190.960938 68.292969 C 197.8125 68.945312 212.394531 69 219.199219 68.292969 C 226.632812 67.515625 227.75 62.167969 227.539062 55.636719 Z M 259.601562 12.671875 C 260.238281 12.671875 262.867188 13.824219 263.507812 14.300781 C 268.324219 17.921875 268.433594 29.679688 263.839844 33.507812 C 261.414062 35.523438 255.460938 35.875 252.425781 35.472656 C 251.992188 35.417969 250.972656 35.058594 250.972656 34.640625 L 250.972656 13.484375 C 250.972656 13.378906 251.40625 12.992188 251.300781 12.671875 Z M 251.265625 47.308594 C 251.96875 46.414062 259.21875 46.96875 260.914062 46.863281 C 277.019531 45.867188 284.695312 33.886719 282.191406 18.398438 C 279.535156 1.921875 264.390625 0.78125 250.796875 0.941406 C 247.195312 0.984375 241.886719 0.9375 238.445312 1.285156 C 237.8125 1.351562 236.242188 1.546875 236.042969 2.136719 L 236.0625 67.457031 C 236.480469 68.855469 240.644531 68.308594 242.019531 68.335938 C 243.398438 68.363281 244.214844 68.375 245.605469 68.335938 C 246.726562 68.308594 249.902344 68.597656 250.570312 67.929688 C 251.871094 66.636719 250.058594 48.835938 251.265625 47.308594 M 152.1875 43.269531 C 151.585938 43.191406 149.351562 42.449219 148.75 42.152344 C 146.535156 41.03125 146.039062 38.207031 146.152344 35.9375 C 146.195312 35.027344 146.820312 31.289062 147.324219 30.925781 C 147.773438 30.597656 148.390625 30.609375 148.914062 30.558594 C 152.738281 30.214844 164.722656 30.167969 167.972656 31.386719 C 170.902344 32.480469 172.28125 36 172.519531 38.878906 L 172.46875 64.859375 C 172.039062 66.121094 162.648438 67.925781 160.871094 68.234375 C 141.894531 71.488281 123.867188 68.921875 118.96875 47.507812 C 112.226562 18.011719 130.820312 -8.128906 162.488281 2.359375 C 164.011719 2.863281 171.777344 6.195312 172.136719 7.367188 C 172.769531 9.886719 168.304688 17.035156 166.09375 17.496094 C 164.664062 17.792969 162.773438 16.164062 161.34375 15.539062 C 140.515625 6.402344 131.773438 19.421875 133.136719 39.195312 C 134.113281 53.355469 141.632812 59.140625 155.726562 57.230469 C 156.71875 57.097656 158.308594 56.5625 158.519531 55.464844 C 158.835938 53.816406 158.757812 46.226562 158.539062 44.386719 C 158.484375 43.917969 158.5 43.550781 158.035156 43.265625 C 156.175781 43.097656 153.984375 43.492188 152.175781 43.265625 "/></clipPath><clipPath id="3b0d8f93b5"><path d="M 305.152344 18.164062 L 341.480469 18.164062 L 341.480469 64.96875 L 305.152344 64.96875 Z M 305.152344 18.164062 "/></clipPath><clipPath id="68fc8a1105"><path d="M 333.605469 52.503906 C 334.617188 51.863281 335.230469 51.46875 335.230469 51.46875 L 335.414062 51.757812 L 335.230469 51.46875 C 340.9375 47.847656 342.148438 40.507812 338.851562 35.3125 C 337.96875 33.921875 336.765625 32.683594 335.230469 31.710938 L 335.414062 31.421875 L 335.230469 31.710938 L 317.007812 20.144531 C 313.632812 18 309.15625 19 307.015625 22.375 L 306.726562 22.195312 L 307.015625 22.382812 C 304.875 25.753906 305.871094 30.230469 309.246094 32.375 L 309.0625 32.664062 L 309.246094 32.375 L 317.214844 37.429688 C 319.625 38.957031 320.128906 42.046875 318.742188 44.230469 C 318.371094 44.816406 317.863281 45.339844 317.214844 45.746094 L 317.027344 45.457031 L 317.214844 45.746094 L 309.246094 50.800781 L 309.0625 50.511719 L 309.246094 50.800781 C 305.871094 52.941406 304.867188 57.417969 307.015625 60.792969 L 306.726562 60.980469 L 307.015625 60.792969 C 309.15625 64.167969 313.632812 65.171875 317.007812 63.03125 L 317.195312 63.320312 L 317.007812 63.03125 C 317.007812 63.03125 329.136719 55.339844 333.605469 52.503906 L 333.789062 52.792969 L 333.605469 52.503906 M 333.976562 53.082031 C 329.507812 55.917969 317.378906 63.609375 317.378906 63.609375 C 313.683594 65.957031 308.785156 64.855469 306.4375 61.164062 C 304.089844 57.46875 305.183594 52.570312 308.882812 50.222656 L 316.847656 45.167969 C 317.40625 44.816406 317.839844 44.371094 318.164062 43.859375 C 319.363281 41.972656 318.921875 39.316406 316.847656 38.007812 L 317.035156 37.71875 L 316.847656 38.007812 L 308.882812 32.953125 C 305.183594 30.601562 304.089844 25.707031 306.4375 22.007812 C 308.785156 18.3125 313.683594 17.214844 317.378906 19.5625 L 317.195312 19.855469 L 317.378906 19.5625 L 335.601562 31.125 C 337.21875 32.152344 338.5 33.46875 339.4375 34.941406 C 342.929688 40.4375 341.648438 48.210938 335.601562 52.046875 C 335.601562 52.046875 334.980469 52.441406 333.976562 53.082031 Z M 333.976562 53.082031 "/></clipPath><clipPath id="c6f36cd7b0"><path d="M 291.644531 4.425781 L 327.972656 4.425781 L 327.972656 51.230469 L 291.644531 51.230469 Z M 291.644531 4.425781 "/></clipPath><clipPath id="de7d93b2d0"><path d="M 323.875 37.027344 L 315.90625 31.972656 C 313.496094 30.445312 312.992188 27.351562 314.382812 25.171875 C 314.757812 24.585938 315.265625 24.0625 315.90625 23.65625 L 323.875 18.601562 L 324.058594 18.890625 L 323.875 18.601562 C 327.246094 16.457031 328.253906 11.980469 326.105469 8.609375 C 323.964844 5.234375 319.488281 4.226562 316.113281 6.371094 L 297.890625 17.933594 L 297.707031 17.644531 L 297.890625 17.933594 C 292.183594 21.554688 290.96875 28.894531 294.269531 34.089844 C 295.148438 35.480469 296.355469 36.71875 297.890625 37.691406 L 297.707031 37.980469 L 297.890625 37.691406 L 316.121094 49.257812 C 319.492188 51.402344 323.96875 50.402344 326.113281 47.027344 L 326.402344 47.214844 L 326.113281 47.027344 C 328.253906 43.652344 327.253906 39.175781 323.878906 37.035156 L 324.253906 36.457031 C 327.949219 38.804688 329.046875 43.703125 326.695312 47.398438 C 324.347656 51.097656 319.453125 52.191406 315.753906 49.84375 L 315.941406 49.554688 L 315.753906 49.84375 L 297.527344 38.273438 C 295.90625 37.25 294.625 35.933594 293.691406 34.460938 C 290.199219 28.964844 291.472656 21.191406 297.527344 17.355469 L 315.746094 5.792969 L 315.933594 6.082031 L 315.746094 5.792969 C 319.445312 3.441406 324.34375 4.539062 326.691406 8.234375 L 326.402344 8.421875 L 326.691406 8.234375 C 329.039062 11.933594 327.945312 16.832031 324.246094 19.179688 L 316.277344 24.234375 L 316.09375 23.945312 L 316.277344 24.234375 C 315.71875 24.585938 315.285156 25.03125 314.960938 25.535156 C 313.765625 27.421875 314.203125 30.078125 316.277344 31.386719 L 316.09375 31.675781 L 316.277344 31.386719 L 324.246094 36.441406 Z M 323.875 37.027344 "/></clipPath></defs><g id="5490b54d65"><g clip-rule="nonzero" clip-path="url(#ac7b6c8bc0)"><g clip-rule="nonzero" clip-path="url(#87338c6540)"><path style=" stroke:none;fill-rule:nonzero;fill:#f2f0f0;fill-opacity:1;" d="M 5.871094 0 L 282.65625 0 L 282.65625 69.398438 L 5.871094 69.398438 Z M 5.871094 0 "/></g></g><g clip-rule="nonzero" clip-path="url(#3b0d8f93b5)"><g clip-rule="nonzero" clip-path="url(#68fc8a1105)"><path style=" stroke:none;fill-rule:nonzero;fill:#f2f0f0;fill-opacity:1;" d="M 286.753906 0 L 346.371094 0 L 346.371094 69.394531 L 286.753906 69.394531 Z M 286.753906 0 "/></g></g><g clip-rule="nonzero" clip-path="url(#c6f36cd7b0)"><g clip-rule="nonzero" clip-path="url(#de7d93b2d0)"><path style=" stroke:none;fill-rule:nonzero;fill:#fbe200;fill-opacity:1;" d="M 286.753906 0 L 346.371094 0 L 346.371094 69.394531 L 286.753906 69.394531 Z M 286.753906 0 "/></g></g><g style="fill:#f2f0f0;fill-opacity:1;"><g transform="translate(5.869282, 94.606678)"><path style="stroke:none" d="M 5.78125 0.15625 C 4.789062 0.15625 3.835938 0.00390625 2.921875 -0.296875 C 2.003906 -0.609375 1.285156 -1.007812 0.765625 -1.5 L 1.453125 -2.953125 C 1.953125 -2.503906 2.59375 -2.140625 3.375 -1.859375 C 4.15625 -1.578125 4.957031 -1.4375 5.78125 -1.4375 C 6.863281 -1.4375 7.671875 -1.617188 8.203125 -1.984375 C 8.742188 -2.359375 9.015625 -2.847656 9.015625 -3.453125 C 9.015625 -3.910156 8.867188 -4.273438 8.578125 -4.546875 C 8.285156 -4.828125 7.921875 -5.039062 7.484375 -5.1875 C 7.054688 -5.34375 6.453125 -5.515625 5.671875 -5.703125 C 4.679688 -5.941406 3.882812 -6.175781 3.28125 -6.40625 C 2.675781 -6.644531 2.15625 -7.007812 1.71875 -7.5 C 1.289062 -8 1.078125 -8.664062 1.078125 -9.5 C 1.078125 -10.195312 1.257812 -10.828125 1.625 -11.390625 C 2 -11.953125 2.5625 -12.398438 3.3125 -12.734375 C 4.0625 -13.066406 4.988281 -13.234375 6.09375 -13.234375 C 6.863281 -13.234375 7.625 -13.132812 8.375 -12.9375 C 9.125 -12.738281 9.769531 -12.453125 10.3125 -12.078125 L 9.6875 -10.59375 C 9.132812 -10.9375 8.546875 -11.195312 7.921875 -11.375 C 7.304688 -11.5625 6.695312 -11.65625 6.09375 -11.65625 C 5.03125 -11.65625 4.234375 -11.460938 3.703125 -11.078125 C 3.179688 -10.691406 2.921875 -10.191406 2.921875 -9.578125 C 2.921875 -9.128906 3.066406 -8.765625 3.359375 -8.484375 C 3.660156 -8.203125 4.03125 -7.984375 4.46875 -7.828125 C 4.914062 -7.671875 5.519531 -7.503906 6.28125 -7.328125 C 7.269531 -7.085938 8.0625 -6.847656 8.65625 -6.609375 C 9.257812 -6.378906 9.773438 -6.019531 10.203125 -5.53125 C 10.628906 -5.050781 10.84375 -4.398438 10.84375 -3.578125 C 10.84375 -2.890625 10.65625 -2.257812 10.28125 -1.6875 C 9.90625 -1.125 9.335938 -0.675781 8.578125 -0.34375 C 7.816406 -0.0078125 6.882812 0.15625 5.78125 0.15625 Z M 5.78125 0.15625 "/></g></g><g style="fill:#f2f0f0;fill-opacity:1;"><g transform="translate(17.480327, 94.606678)"><path style="stroke:none" d="M 1.703125 -9.90625 L 3.5 -9.90625 L 3.5 0 L 1.703125 0 Z M 2.59375 -11.828125 C 2.238281 -11.828125 1.945312 -11.9375 1.71875 -12.15625 C 1.488281 -12.382812 1.375 -12.660156 1.375 -12.984375 C 1.375 -13.304688 1.488281 -13.582031 1.71875 -13.8125 C 1.945312 -14.039062 2.238281 -14.15625 2.59375 -14.15625 C 2.9375 -14.15625 3.222656 -14.046875 3.453125 -13.828125 C 3.691406 -13.609375 3.8125 -13.335938 3.8125 -13.015625 C 3.8125 -12.679688 3.691406 -12.398438 3.453125 -12.171875 C 3.222656 -11.941406 2.9375 -11.828125 2.59375 -11.828125 Z M 2.59375 -11.828125 "/></g></g><g style="fill:#f2f0f0;fill-opacity:1;"><g transform="translate(22.696887, 94.606678)"><path style="stroke:none" d="M 4.546875 0.109375 C 3.734375 0.109375 2.953125 0 2.203125 -0.21875 C 1.453125 -0.4375 0.867188 -0.710938 0.453125 -1.046875 L 1.203125 -2.46875 C 1.640625 -2.15625 2.164062 -1.90625 2.78125 -1.71875 C 3.40625 -1.53125 4.035156 -1.4375 4.671875 -1.4375 C 6.242188 -1.4375 7.03125 -1.882812 7.03125 -2.78125 C 7.03125 -3.082031 6.921875 -3.320312 6.703125 -3.5 C 6.492188 -3.675781 6.226562 -3.800781 5.90625 -3.875 C 5.59375 -3.957031 5.144531 -4.050781 4.5625 -4.15625 C 3.757812 -4.28125 3.109375 -4.421875 2.609375 -4.578125 C 2.109375 -4.742188 1.675781 -5.019531 1.3125 -5.40625 C 0.945312 -5.789062 0.765625 -6.332031 0.765625 -7.03125 C 0.765625 -7.925781 1.140625 -8.644531 1.890625 -9.1875 C 2.640625 -9.726562 3.644531 -10 4.90625 -10 C 5.5625 -10 6.21875 -9.914062 6.875 -9.75 C 7.539062 -9.59375 8.085938 -9.378906 8.515625 -9.109375 L 7.75 -7.6875 C 6.9375 -8.207031 5.976562 -8.46875 4.875 -8.46875 C 4.113281 -8.46875 3.535156 -8.34375 3.140625 -8.09375 C 2.742188 -7.84375 2.546875 -7.515625 2.546875 -7.109375 C 2.546875 -6.785156 2.65625 -6.53125 2.875 -6.34375 C 3.101562 -6.15625 3.378906 -6.015625 3.703125 -5.921875 C 4.035156 -5.835938 4.503906 -5.738281 5.109375 -5.625 C 5.898438 -5.488281 6.539062 -5.34375 7.03125 -5.1875 C 7.53125 -5.03125 7.953125 -4.765625 8.296875 -4.390625 C 8.648438 -4.015625 8.828125 -3.492188 8.828125 -2.828125 C 8.828125 -1.929688 8.441406 -1.21875 7.671875 -0.6875 C 6.910156 -0.15625 5.867188 0.109375 4.546875 0.109375 Z M 4.546875 0.109375 "/></g></g><g style="fill:#f2f0f0;fill-opacity:1;"><g transform="translate(32.064254, 94.606678)"><path style="stroke:none" d="M 7.28125 -0.578125 C 7.007812 -0.359375 6.679688 -0.1875 6.296875 -0.0625 C 5.910156 0.0507812 5.515625 0.109375 5.109375 0.109375 C 4.109375 0.109375 3.332031 -0.15625 2.78125 -0.6875 C 2.238281 -1.226562 1.96875 -2 1.96875 -3 L 1.96875 -8.4375 L 0.28125 -8.4375 L 0.28125 -9.90625 L 1.96875 -9.90625 L 1.96875 -12.078125 L 3.765625 -12.078125 L 3.765625 -9.90625 L 6.609375 -9.90625 L 6.609375 -8.4375 L 3.765625 -8.4375 L 3.765625 -3.0625 C 3.765625 -2.53125 3.894531 -2.117188 4.15625 -1.828125 C 4.425781 -1.546875 4.8125 -1.40625 5.3125 -1.40625 C 5.863281 -1.40625 6.332031 -1.5625 6.71875 -1.875 Z M 7.28125 -0.578125 "/></g></g><g style="fill:#f2f0f0;fill-opacity:1;"><g transform="translate(39.804951, 94.606678)"><path style="stroke:none" d="M 10.65625 -4.90625 C 10.65625 -4.757812 10.644531 -4.578125 10.625 -4.359375 L 2.578125 -4.359375 C 2.691406 -3.484375 3.078125 -2.78125 3.734375 -2.25 C 4.390625 -1.71875 5.203125 -1.453125 6.171875 -1.453125 C 7.359375 -1.453125 8.3125 -1.851562 9.03125 -2.65625 L 10.03125 -1.5 C 9.582031 -0.96875 9.019531 -0.566406 8.34375 -0.296875 C 7.675781 -0.0234375 6.929688 0.109375 6.109375 0.109375 C 5.066406 0.109375 4.140625 -0.101562 3.328125 -0.53125 C 2.515625 -0.957031 1.882812 -1.554688 1.4375 -2.328125 C 1 -3.109375 0.78125 -3.984375 0.78125 -4.953125 C 0.78125 -5.910156 0.992188 -6.773438 1.421875 -7.546875 C 1.859375 -8.328125 2.453125 -8.929688 3.203125 -9.359375 C 3.960938 -9.785156 4.816406 -10 5.765625 -10 C 6.710938 -10 7.554688 -9.785156 8.296875 -9.359375 C 9.035156 -8.929688 9.613281 -8.328125 10.03125 -7.546875 C 10.445312 -6.773438 10.65625 -5.894531 10.65625 -4.90625 Z M 5.765625 -8.484375 C 4.898438 -8.484375 4.175781 -8.222656 3.59375 -7.703125 C 3.019531 -7.179688 2.679688 -6.492188 2.578125 -5.640625 L 8.9375 -5.640625 C 8.84375 -6.484375 8.503906 -7.164062 7.921875 -7.6875 C 7.335938 -8.21875 6.617188 -8.484375 5.765625 -8.484375 Z M 5.765625 -8.484375 "/></g></g><g style="fill:#f2f0f0;fill-opacity:1;"><g transform="translate(51.247723, 94.606678)"><path style="stroke:none" d="M 14.109375 -10 C 15.347656 -10 16.332031 -9.640625 17.0625 -8.921875 C 17.789062 -8.203125 18.15625 -7.128906 18.15625 -5.703125 L 18.15625 0 L 16.359375 0 L 16.359375 -5.5 C 16.359375 -6.457031 16.132812 -7.175781 15.6875 -7.65625 C 15.25 -8.144531 14.617188 -8.390625 13.796875 -8.390625 C 12.890625 -8.390625 12.164062 -8.109375 11.625 -7.546875 C 11.09375 -6.984375 10.828125 -6.171875 10.828125 -5.109375 L 10.828125 0 L 9.03125 0 L 9.03125 -5.5 C 9.03125 -6.457031 8.804688 -7.175781 8.359375 -7.65625 C 7.921875 -8.144531 7.289062 -8.390625 6.46875 -8.390625 C 5.5625 -8.390625 4.835938 -8.109375 4.296875 -7.546875 C 3.765625 -6.984375 3.5 -6.171875 3.5 -5.109375 L 3.5 0 L 1.703125 0 L 1.703125 -9.90625 L 3.421875 -9.90625 L 3.421875 -8.4375 C 3.785156 -8.945312 4.257812 -9.332031 4.84375 -9.59375 C 5.425781 -9.863281 6.09375 -10 6.84375 -10 C 7.613281 -10 8.296875 -9.84375 8.890625 -9.53125 C 9.492188 -9.226562 9.957031 -8.773438 10.28125 -8.171875 C 10.65625 -8.742188 11.175781 -9.191406 11.84375 -9.515625 C 12.507812 -9.835938 13.265625 -10 14.109375 -10 Z M 14.109375 -10 "/></g></g><g style="fill:#f2f0f0;fill-opacity:1;"><g transform="translate(71.010802, 94.606678)"><path style="stroke:none" d="M 5.3125 -10 C 6.6875 -10 7.738281 -9.660156 8.46875 -8.984375 C 9.195312 -8.316406 9.5625 -7.316406 9.5625 -5.984375 L 9.5625 0 L 7.859375 0 L 7.859375 -1.3125 C 7.554688 -0.851562 7.125 -0.5 6.5625 -0.25 C 6.007812 -0.0078125 5.351562 0.109375 4.59375 0.109375 C 3.488281 0.109375 2.601562 -0.15625 1.9375 -0.6875 C 1.269531 -1.226562 0.9375 -1.9375 0.9375 -2.8125 C 0.9375 -3.675781 1.253906 -4.375 1.890625 -4.90625 C 2.523438 -5.4375 3.535156 -5.703125 4.921875 -5.703125 L 7.765625 -5.703125 L 7.765625 -6.0625 C 7.765625 -6.832031 7.539062 -7.421875 7.09375 -7.828125 C 6.644531 -8.242188 5.984375 -8.453125 5.109375 -8.453125 C 4.523438 -8.453125 3.953125 -8.351562 3.390625 -8.15625 C 2.828125 -7.96875 2.351562 -7.710938 1.96875 -7.390625 L 1.21875 -8.734375 C 1.726562 -9.148438 2.335938 -9.460938 3.046875 -9.671875 C 3.753906 -9.890625 4.507812 -10 5.3125 -10 Z M 4.90625 -1.265625 C 5.582031 -1.265625 6.171875 -1.414062 6.671875 -1.71875 C 7.171875 -2.03125 7.535156 -2.46875 7.765625 -3.03125 L 7.765625 -4.40625 L 5 -4.40625 C 3.476562 -4.40625 2.71875 -3.894531 2.71875 -2.875 C 2.71875 -2.375 2.910156 -1.976562 3.296875 -1.6875 C 3.679688 -1.40625 4.21875 -1.265625 4.90625 -1.265625 Z M 4.90625 -1.265625 "/></g></g><g style="fill:#f2f0f0;fill-opacity:1;"><g transform="translate(82.191806, 94.606678)"><path style="stroke:none" d=""/></g></g><g style="fill:#f2f0f0;fill-opacity:1;"><g transform="translate(87.221388, 94.606678)"><path style="stroke:none" d="M 11.046875 -13.875 L 11.046875 0 L 9.328125 0 L 9.328125 -1.578125 C 8.929688 -1.023438 8.425781 -0.601562 7.8125 -0.3125 C 7.207031 -0.03125 6.535156 0.109375 5.796875 0.109375 C 4.835938 0.109375 3.976562 -0.0976562 3.21875 -0.515625 C 2.457031 -0.941406 1.859375 -1.535156 1.421875 -2.296875 C 0.992188 -3.066406 0.78125 -3.953125 0.78125 -4.953125 C 0.78125 -5.953125 0.992188 -6.832031 1.421875 -7.59375 C 1.859375 -8.351562 2.457031 -8.941406 3.21875 -9.359375 C 3.976562 -9.785156 4.835938 -10 5.796875 -10 C 6.503906 -10 7.15625 -9.863281 7.75 -9.59375 C 8.351562 -9.332031 8.859375 -8.941406 9.265625 -8.421875 L 9.265625 -13.875 Z M 5.953125 -1.453125 C 6.566406 -1.453125 7.128906 -1.597656 7.640625 -1.890625 C 8.160156 -2.191406 8.5625 -2.601562 8.84375 -3.125 C 9.132812 -3.65625 9.28125 -4.265625 9.28125 -4.953125 C 9.28125 -5.640625 9.132812 -6.25 8.84375 -6.78125 C 8.5625 -7.3125 8.160156 -7.71875 7.640625 -8 C 7.128906 -8.289062 6.566406 -8.4375 5.953125 -8.4375 C 5.316406 -8.4375 4.742188 -8.289062 4.234375 -8 C 3.734375 -7.71875 3.332031 -7.3125 3.03125 -6.78125 C 2.738281 -6.25 2.59375 -5.640625 2.59375 -4.953125 C 2.59375 -4.265625 2.738281 -3.65625 3.03125 -3.125 C 3.332031 -2.601562 3.734375 -2.191406 4.234375 -1.890625 C 4.742188 -1.597656 5.316406 -1.453125 5.953125 -1.453125 Z M 5.953125 -1.453125 "/></g></g><g style="fill:#f2f0f0;fill-opacity:1;"><g transform="translate(99.972976, 94.606678)"><path style="stroke:none" d="M 10.65625 -4.90625 C 10.65625 -4.757812 10.644531 -4.578125 10.625 -4.359375 L 2.578125 -4.359375 C 2.691406 -3.484375 3.078125 -2.78125 3.734375 -2.25 C 4.390625 -1.71875 5.203125 -1.453125 6.171875 -1.453125 C 7.359375 -1.453125 8.3125 -1.851562 9.03125 -2.65625 L 10.03125 -1.5 C 9.582031 -0.96875 9.019531 -0.566406 8.34375 -0.296875 C 7.675781 -0.0234375 6.929688 0.109375 6.109375 0.109375 C 5.066406 0.109375 4.140625 -0.101562 3.328125 -0.53125 C 2.515625 -0.957031 1.882812 -1.554688 1.4375 -2.328125 C 1 -3.109375 0.78125 -3.984375 0.78125 -4.953125 C 0.78125 -5.910156 0.992188 -6.773438 1.421875 -7.546875 C 1.859375 -8.328125 2.453125 -8.929688 3.203125 -9.359375 C 3.960938 -9.785156 4.816406 -10 5.765625 -10 C 6.710938 -10 7.554688 -9.785156 8.296875 -9.359375 C 9.035156 -8.929688 9.613281 -8.328125 10.03125 -7.546875 C 10.445312 -6.773438 10.65625 -5.894531 10.65625 -4.90625 Z M 5.765625 -8.484375 C 4.898438 -8.484375 4.175781 -8.222656 3.59375 -7.703125 C 3.019531 -7.179688 2.679688 -6.492188 2.578125 -5.640625 L 8.9375 -5.640625 C 8.84375 -6.484375 8.503906 -7.164062 7.921875 -7.6875 C 7.335938 -8.21875 6.617188 -8.484375 5.765625 -8.484375 Z M 5.765625 -8.484375 "/></g></g><g style="fill:#f2f0f0;fill-opacity:1;"><g transform="translate(111.415747, 94.606678)"><path style="stroke:none" d=""/></g></g><g style="fill:#f2f0f0;fill-opacity:1;"><g transform="translate(116.44533, 94.606678)"><path style="stroke:none" d="M 10.3125 -3.265625 L 3.34375 -3.265625 L 1.90625 0 L -0.015625 0 L 5.90625 -13.09375 L 7.765625 -13.09375 L 13.703125 0 L 11.75 0 Z M 9.65625 -4.765625 L 6.828125 -11.1875 L 4 -4.765625 Z M 9.65625 -4.765625 "/></g></g><g style="fill:#f2f0f0;fill-opacity:1;"><g transform="translate(130.131779, 94.606678)"><path style="stroke:none" d="M 6.953125 -10 C 7.910156 -10 8.769531 -9.785156 9.53125 -9.359375 C 10.289062 -8.941406 10.882812 -8.351562 11.3125 -7.59375 C 11.75 -6.832031 11.96875 -5.953125 11.96875 -4.953125 C 11.96875 -3.953125 11.75 -3.066406 11.3125 -2.296875 C 10.882812 -1.535156 10.289062 -0.941406 9.53125 -0.515625 C 8.769531 -0.0976562 7.910156 0.109375 6.953125 0.109375 C 6.242188 0.109375 5.59375 -0.0234375 5 -0.296875 C 4.40625 -0.566406 3.90625 -0.96875 3.5 -1.5 L 3.5 3.625 L 1.703125 3.625 L 1.703125 -9.90625 L 3.421875 -9.90625 L 3.421875 -8.34375 C 3.816406 -8.894531 4.320312 -9.304688 4.9375 -9.578125 C 5.550781 -9.859375 6.222656 -10 6.953125 -10 Z M 6.8125 -1.453125 C 7.445312 -1.453125 8.015625 -1.597656 8.515625 -1.890625 C 9.023438 -2.191406 9.425781 -2.601562 9.71875 -3.125 C 10.007812 -3.65625 10.15625 -4.265625 10.15625 -4.953125 C 10.15625 -5.640625 10.007812 -6.25 9.71875 -6.78125 C 9.425781 -7.3125 9.023438 -7.71875 8.515625 -8 C 8.015625 -8.289062 7.445312 -8.4375 6.8125 -8.4375 C 6.1875 -8.4375 5.617188 -8.289062 5.109375 -8 C 4.609375 -7.707031 4.210938 -7.296875 3.921875 -6.765625 C 3.628906 -6.242188 3.484375 -5.640625 3.484375 -4.953125 C 3.484375 -4.265625 3.625 -3.65625 3.90625 -3.125 C 4.195312 -2.601562 4.597656 -2.191406 5.109375 -1.890625 C 5.617188 -1.597656 6.1875 -1.453125 6.8125 -1.453125 Z M 6.8125 -1.453125 "/></g></g><g style="fill:#f2f0f0;fill-opacity:1;"><g transform="translate(142.883366, 94.606678)"><path style="stroke:none" d="M 5.953125 0.109375 C 4.960938 0.109375 4.070312 -0.109375 3.28125 -0.546875 C 2.5 -0.984375 1.882812 -1.582031 1.4375 -2.34375 C 1 -3.113281 0.78125 -3.984375 0.78125 -4.953125 C 0.78125 -5.929688 1 -6.800781 1.4375 -7.5625 C 1.882812 -8.332031 2.5 -8.929688 3.28125 -9.359375 C 4.070312 -9.785156 4.960938 -10 5.953125 -10 C 6.929688 -10 7.8125 -9.785156 8.59375 -9.359375 C 9.375 -8.929688 9.984375 -8.332031 10.421875 -7.5625 C 10.867188 -6.800781 11.09375 -5.929688 11.09375 -4.953125 C 11.09375 -3.984375 10.867188 -3.113281 10.421875 -2.34375 C 9.984375 -1.582031 9.375 -0.984375 8.59375 -0.546875 C 7.8125 -0.109375 6.929688 0.109375 5.953125 0.109375 Z M 5.953125 -1.453125 C 6.585938 -1.453125 7.15625 -1.597656 7.65625 -1.890625 C 8.164062 -2.191406 8.5625 -2.601562 8.84375 -3.125 C 9.132812 -3.65625 9.28125 -4.265625 9.28125 -4.953125 C 9.28125 -5.640625 9.132812 -6.25 8.84375 -6.78125 C 8.5625 -7.3125 8.164062 -7.71875 7.65625 -8 C 7.15625 -8.289062 6.585938 -8.4375 5.953125 -8.4375 C 5.316406 -8.4375 4.742188 -8.289062 4.234375 -8 C 3.734375 -7.71875 3.332031 -7.3125 3.03125 -6.78125 C 2.738281 -6.25 2.59375 -5.640625 2.59375 -4.953125 C 2.59375 -4.265625 2.738281 -3.65625 3.03125 -3.125 C 3.332031 -2.601562 3.734375 -2.191406 4.234375 -1.890625 C 4.742188 -1.597656 5.316406 -1.453125 5.953125 -1.453125 Z M 5.953125 -1.453125 "/></g></g><g style="fill:#f2f0f0;fill-opacity:1;"><g transform="translate(154.756179, 94.606678)"><path style="stroke:none" d="M 1.703125 -9.90625 L 3.5 -9.90625 L 3.5 0 L 1.703125 0 Z M 2.59375 -11.828125 C 2.238281 -11.828125 1.945312 -11.9375 1.71875 -12.15625 C 1.488281 -12.382812 1.375 -12.660156 1.375 -12.984375 C 1.375 -13.304688 1.488281 -13.582031 1.71875 -13.8125 C 1.945312 -14.039062 2.238281 -14.15625 2.59375 -14.15625 C 2.9375 -14.15625 3.222656 -14.046875 3.453125 -13.828125 C 3.691406 -13.609375 3.8125 -13.335938 3.8125 -13.015625 C 3.8125 -12.679688 3.691406 -12.398438 3.453125 -12.171875 C 3.222656 -11.941406 2.9375 -11.828125 2.59375 -11.828125 Z M 2.59375 -11.828125 "/></g></g><g style="fill:#f2f0f0;fill-opacity:1;"><g transform="translate(159.972738, 94.606678)"><path style="stroke:none" d="M 5.953125 0.109375 C 4.960938 0.109375 4.070312 -0.109375 3.28125 -0.546875 C 2.5 -0.984375 1.882812 -1.582031 1.4375 -2.34375 C 1 -3.113281 0.78125 -3.984375 0.78125 -4.953125 C 0.78125 -5.929688 1 -6.800781 1.4375 -7.5625 C 1.882812 -8.332031 2.5 -8.929688 3.28125 -9.359375 C 4.070312 -9.785156 4.960938 -10 5.953125 -10 C 6.929688 -10 7.8125 -9.785156 8.59375 -9.359375 C 9.375 -8.929688 9.984375 -8.332031 10.421875 -7.5625 C 10.867188 -6.800781 11.09375 -5.929688 11.09375 -4.953125 C 11.09375 -3.984375 10.867188 -3.113281 10.421875 -2.34375 C 9.984375 -1.582031 9.375 -0.984375 8.59375 -0.546875 C 7.8125 -0.109375 6.929688 0.109375 5.953125 0.109375 Z M 5.953125 -1.453125 C 6.585938 -1.453125 7.15625 -1.597656 7.65625 -1.890625 C 8.164062 -2.191406 8.5625 -2.601562 8.84375 -3.125 C 9.132812 -3.65625 9.28125 -4.265625 9.28125 -4.953125 C 9.28125 -5.640625 9.132812 -6.25 8.84375 -6.78125 C 8.5625 -7.3125 8.164062 -7.71875 7.65625 -8 C 7.15625 -8.289062 6.585938 -8.4375 5.953125 -8.4375 C 5.316406 -8.4375 4.742188 -8.289062 4.234375 -8 C 3.734375 -7.71875 3.332031 -7.3125 3.03125 -6.78125 C 2.738281 -6.25 2.59375 -5.640625 2.59375 -4.953125 C 2.59375 -4.265625 2.738281 -3.65625 3.03125 -3.125 C 3.332031 -2.601562 3.734375 -2.191406 4.234375 -1.890625 C 4.742188 -1.597656 5.316406 -1.453125 5.953125 -1.453125 Z M 5.953125 -1.453125 "/></g></g><g style="fill:#f2f0f0;fill-opacity:1;"><g transform="translate(171.845551, 94.606678)"><path style="stroke:none" d=""/></g></g><g style="fill:#f2f0f0;fill-opacity:1;"><g transform="translate(176.875134, 94.606678)"><path style="stroke:none" d="M 5.3125 -10 C 6.6875 -10 7.738281 -9.660156 8.46875 -8.984375 C 9.195312 -8.316406 9.5625 -7.316406 9.5625 -5.984375 L 9.5625 0 L 7.859375 0 L 7.859375 -1.3125 C 7.554688 -0.851562 7.125 -0.5 6.5625 -0.25 C 6.007812 -0.0078125 5.351562 0.109375 4.59375 0.109375 C 3.488281 0.109375 2.601562 -0.15625 1.9375 -0.6875 C 1.269531 -1.226562 0.9375 -1.9375 0.9375 -2.8125 C 0.9375 -3.675781 1.253906 -4.375 1.890625 -4.90625 C 2.523438 -5.4375 3.535156 -5.703125 4.921875 -5.703125 L 7.765625 -5.703125 L 7.765625 -6.0625 C 7.765625 -6.832031 7.539062 -7.421875 7.09375 -7.828125 C 6.644531 -8.242188 5.984375 -8.453125 5.109375 -8.453125 C 4.523438 -8.453125 3.953125 -8.351562 3.390625 -8.15625 C 2.828125 -7.96875 2.351562 -7.710938 1.96875 -7.390625 L 1.21875 -8.734375 C 1.726562 -9.148438 2.335938 -9.460938 3.046875 -9.671875 C 3.753906 -9.890625 4.507812 -10 5.3125 -10 Z M 4.90625 -1.265625 C 5.582031 -1.265625 6.171875 -1.414062 6.671875 -1.71875 C 7.171875 -2.03125 7.535156 -2.46875 7.765625 -3.03125 L 7.765625 -4.40625 L 5 -4.40625 C 3.476562 -4.40625 2.71875 -3.894531 2.71875 -2.875 C 2.71875 -2.375 2.910156 -1.976562 3.296875 -1.6875 C 3.679688 -1.40625 4.21875 -1.265625 4.90625 -1.265625 Z M 4.90625 -1.265625 "/></g></g><g style="fill:#f2f0f0;fill-opacity:1;"><g transform="translate(188.056137, 94.606678)"><path style="stroke:none" d=""/></g></g><g style="fill:#f2f0f0;fill-opacity:1;"><g transform="translate(193.08572, 94.606678)"><path style="stroke:none" d="M 11.03125 -6.625 L 12.828125 -6.625 L 12.828125 -1.515625 C 12.179688 -0.972656 11.425781 -0.554688 10.5625 -0.265625 C 9.707031 0.015625 8.8125 0.15625 7.875 0.15625 C 6.550781 0.15625 5.359375 -0.132812 4.296875 -0.71875 C 3.242188 -1.300781 2.410156 -2.097656 1.796875 -3.109375 C 1.191406 -4.128906 0.890625 -5.273438 0.890625 -6.546875 C 0.890625 -7.816406 1.191406 -8.960938 1.796875 -9.984375 C 2.410156 -11.003906 3.25 -11.800781 4.3125 -12.375 C 5.375 -12.945312 6.570312 -13.234375 7.90625 -13.234375 C 8.957031 -13.234375 9.910156 -13.0625 10.765625 -12.71875 C 11.617188 -12.382812 12.34375 -11.882812 12.9375 -11.21875 L 11.78125 -10.0625 C 10.738281 -11.070312 9.472656 -11.578125 7.984375 -11.578125 C 6.984375 -11.578125 6.085938 -11.359375 5.296875 -10.921875 C 4.503906 -10.492188 3.882812 -9.894531 3.4375 -9.125 C 2.988281 -8.363281 2.765625 -7.503906 2.765625 -6.546875 C 2.765625 -5.597656 2.988281 -4.738281 3.4375 -3.96875 C 3.882812 -3.207031 4.503906 -2.609375 5.296875 -2.171875 C 6.085938 -1.734375 6.976562 -1.515625 7.96875 -1.515625 C 9.132812 -1.515625 10.15625 -1.796875 11.03125 -2.359375 Z M 11.03125 -6.625 "/></g></g><g style="fill:#f2f0f0;fill-opacity:1;"><g transform="translate(207.520054, 94.606678)"><path style="stroke:none" d="M 10.65625 -4.90625 C 10.65625 -4.757812 10.644531 -4.578125 10.625 -4.359375 L 2.578125 -4.359375 C 2.691406 -3.484375 3.078125 -2.78125 3.734375 -2.25 C 4.390625 -1.71875 5.203125 -1.453125 6.171875 -1.453125 C 7.359375 -1.453125 8.3125 -1.851562 9.03125 -2.65625 L 10.03125 -1.5 C 9.582031 -0.96875 9.019531 -0.566406 8.34375 -0.296875 C 7.675781 -0.0234375 6.929688 0.109375 6.109375 0.109375 C 5.066406 0.109375 4.140625 -0.101562 3.328125 -0.53125 C 2.515625 -0.957031 1.882812 -1.554688 1.4375 -2.328125 C 1 -3.109375 0.78125 -3.984375 0.78125 -4.953125 C 0.78125 -5.910156 0.992188 -6.773438 1.421875 -7.546875 C 1.859375 -8.328125 2.453125 -8.929688 3.203125 -9.359375 C 3.960938 -9.785156 4.816406 -10 5.765625 -10 C 6.710938 -10 7.554688 -9.785156 8.296875 -9.359375 C 9.035156 -8.929688 9.613281 -8.328125 10.03125 -7.546875 C 10.445312 -6.773438 10.65625 -5.894531 10.65625 -4.90625 Z M 5.765625 -8.484375 C 4.898438 -8.484375 4.175781 -8.222656 3.59375 -7.703125 C 3.019531 -7.179688 2.679688 -6.492188 2.578125 -5.640625 L 8.9375 -5.640625 C 8.84375 -6.484375 8.503906 -7.164062 7.921875 -7.6875 C 7.335938 -8.21875 6.617188 -8.484375 5.765625 -8.484375 Z M 5.765625 -8.484375 "/></g></g><g style="fill:#f2f0f0;fill-opacity:1;"><g transform="translate(218.962837, 94.606678)"><path style="stroke:none" d="M 4.546875 0.109375 C 3.734375 0.109375 2.953125 0 2.203125 -0.21875 C 1.453125 -0.4375 0.867188 -0.710938 0.453125 -1.046875 L 1.203125 -2.46875 C 1.640625 -2.15625 2.164062 -1.90625 2.78125 -1.71875 C 3.40625 -1.53125 4.035156 -1.4375 4.671875 -1.4375 C 6.242188 -1.4375 7.03125 -1.882812 7.03125 -2.78125 C 7.03125 -3.082031 6.921875 -3.320312 6.703125 -3.5 C 6.492188 -3.675781 6.226562 -3.800781 5.90625 -3.875 C 5.59375 -3.957031 5.144531 -4.050781 4.5625 -4.15625 C 3.757812 -4.28125 3.109375 -4.421875 2.609375 -4.578125 C 2.109375 -4.742188 1.675781 -5.019531 1.3125 -5.40625 C 0.945312 -5.789062 0.765625 -6.332031 0.765625 -7.03125 C 0.765625 -7.925781 1.140625 -8.644531 1.890625 -9.1875 C 2.640625 -9.726562 3.644531 -10 4.90625 -10 C 5.5625 -10 6.21875 -9.914062 6.875 -9.75 C 7.539062 -9.59375 8.085938 -9.378906 8.515625 -9.109375 L 7.75 -7.6875 C 6.9375 -8.207031 5.976562 -8.46875 4.875 -8.46875 C 4.113281 -8.46875 3.535156 -8.34375 3.140625 -8.09375 C 2.742188 -7.84375 2.546875 -7.515625 2.546875 -7.109375 C 2.546875 -6.785156 2.65625 -6.53125 2.875 -6.34375 C 3.101562 -6.15625 3.378906 -6.015625 3.703125 -5.921875 C 4.035156 -5.835938 4.503906 -5.738281 5.109375 -5.625 C 5.898438 -5.488281 6.539062 -5.34375 7.03125 -5.1875 C 7.53125 -5.03125 7.953125 -4.765625 8.296875 -4.390625 C 8.648438 -4.015625 8.828125 -3.492188 8.828125 -2.828125 C 8.828125 -1.929688 8.441406 -1.21875 7.671875 -0.6875 C 6.910156 -0.15625 5.867188 0.109375 4.546875 0.109375 Z M 4.546875 0.109375 "/></g></g><g style="fill:#f2f0f0;fill-opacity:1;"><g transform="translate(228.330205, 94.606678)"><path style="stroke:none" d="M 7.28125 -0.578125 C 7.007812 -0.359375 6.679688 -0.1875 6.296875 -0.0625 C 5.910156 0.0507812 5.515625 0.109375 5.109375 0.109375 C 4.109375 0.109375 3.332031 -0.15625 2.78125 -0.6875 C 2.238281 -1.226562 1.96875 -2 1.96875 -3 L 1.96875 -8.4375 L 0.28125 -8.4375 L 0.28125 -9.90625 L 1.96875 -9.90625 L 1.96875 -12.078125 L 3.765625 -12.078125 L 3.765625 -9.90625 L 6.609375 -9.90625 L 6.609375 -8.4375 L 3.765625 -8.4375 L 3.765625 -3.0625 C 3.765625 -2.53125 3.894531 -2.117188 4.15625 -1.828125 C 4.425781 -1.546875 4.8125 -1.40625 5.3125 -1.40625 C 5.863281 -1.40625 6.332031 -1.5625 6.71875 -1.875 Z M 7.28125 -0.578125 "/></g></g><g style="fill:#f2f0f0;fill-opacity:1;"><g transform="translate(236.070901, 94.606678)"><path style="stroke:none" d="M 5.3125 -10 C 6.6875 -10 7.738281 -9.660156 8.46875 -8.984375 C 9.195312 -8.316406 9.5625 -7.316406 9.5625 -5.984375 L 9.5625 0 L 7.859375 0 L 7.859375 -1.3125 C 7.554688 -0.851562 7.125 -0.5 6.5625 -0.25 C 6.007812 -0.0078125 5.351562 0.109375 4.59375 0.109375 C 3.488281 0.109375 2.601562 -0.15625 1.9375 -0.6875 C 1.269531 -1.226562 0.9375 -1.9375 0.9375 -2.8125 C 0.9375 -3.675781 1.253906 -4.375 1.890625 -4.90625 C 2.523438 -5.4375 3.535156 -5.703125 4.921875 -5.703125 L 7.765625 -5.703125 L 7.765625 -6.0625 C 7.765625 -6.832031 7.539062 -7.421875 7.09375 -7.828125 C 6.644531 -8.242188 5.984375 -8.453125 5.109375 -8.453125 C 4.523438 -8.453125 3.953125 -8.351562 3.390625 -8.15625 C 2.828125 -7.96875 2.351562 -7.710938 1.96875 -7.390625 L 1.21875 -8.734375 C 1.726562 -9.148438 2.335938 -9.460938 3.046875 -9.671875 C 3.753906 -9.890625 4.507812 -10 5.3125 -10 Z M 4.90625 -1.265625 C 5.582031 -1.265625 6.171875 -1.414062 6.671875 -1.71875 C 7.171875 -2.03125 7.535156 -2.46875 7.765625 -3.03125 L 7.765625 -4.40625 L 5 -4.40625 C 3.476562 -4.40625 2.71875 -3.894531 2.71875 -2.875 C 2.71875 -2.375 2.910156 -1.976562 3.296875 -1.6875 C 3.679688 -1.40625 4.21875 -1.265625 4.90625 -1.265625 Z M 4.90625 -1.265625 "/></g></g><g style="fill:#f2f0f0;fill-opacity:1;"><g transform="translate(247.251905, 94.606678)"><path style="stroke:none" d="M 5.953125 0.109375 C 4.960938 0.109375 4.070312 -0.109375 3.28125 -0.546875 C 2.5 -0.984375 1.882812 -1.582031 1.4375 -2.34375 C 1 -3.113281 0.78125 -3.984375 0.78125 -4.953125 C 0.78125 -5.929688 1 -6.800781 1.4375 -7.5625 C 1.882812 -8.332031 2.5 -8.929688 3.28125 -9.359375 C 4.070312 -9.785156 4.960938 -10 5.953125 -10 C 6.929688 -10 7.8125 -9.785156 8.59375 -9.359375 C 9.375 -8.929688 9.984375 -8.332031 10.421875 -7.5625 C 10.867188 -6.800781 11.09375 -5.929688 11.09375 -4.953125 C 11.09375 -3.984375 10.867188 -3.113281 10.421875 -2.34375 C 9.984375 -1.582031 9.375 -0.984375 8.59375 -0.546875 C 7.8125 -0.109375 6.929688 0.109375 5.953125 0.109375 Z M 5.953125 -1.453125 C 6.585938 -1.453125 7.15625 -1.597656 7.65625 -1.890625 C 8.164062 -2.191406 8.5625 -2.601562 8.84375 -3.125 C 9.132812 -3.65625 9.28125 -4.265625 9.28125 -4.953125 C 9.28125 -5.640625 9.132812 -6.25 8.84375 -6.78125 C 8.5625 -7.3125 8.164062 -7.71875 7.65625 -8 C 7.15625 -8.289062 6.585938 -8.4375 5.953125 -8.4375 C 5.316406 -8.4375 4.742188 -8.289062 4.234375 -8 C 3.734375 -7.71875 3.332031 -7.3125 3.03125 -6.78125 C 2.738281 -6.25 2.59375 -5.640625 2.59375 -4.953125 C 2.59375 -4.265625 2.738281 -3.65625 3.03125 -3.125 C 3.332031 -2.601562 3.734375 -2.191406 4.234375 -1.890625 C 4.742188 -1.597656 5.316406 -1.453125 5.953125 -1.453125 Z M 5.953125 -1.453125 "/></g></g><g style="fill:#f2f0f0;fill-opacity:1;"><g transform="translate(259.124729, 94.606678)"><path style="stroke:none" d=""/></g></g><g style="fill:#f2f0f0;fill-opacity:1;"><g transform="translate(264.1543, 94.606678)"><path style="stroke:none" d="M 7.0625 -13.09375 C 8.757812 -13.09375 10.09375 -12.6875 11.0625 -11.875 C 12.039062 -11.0625 12.53125 -9.945312 12.53125 -8.53125 C 12.53125 -7.101562 12.039062 -5.984375 11.0625 -5.171875 C 10.09375 -4.367188 8.757812 -3.96875 7.0625 -3.96875 L 3.828125 -3.96875 L 3.828125 0 L 1.96875 0 L 1.96875 -13.09375 Z M 7.015625 -5.59375 C 8.203125 -5.59375 9.101562 -5.84375 9.71875 -6.34375 C 10.34375 -6.851562 10.65625 -7.582031 10.65625 -8.53125 C 10.65625 -9.476562 10.34375 -10.203125 9.71875 -10.703125 C 9.101562 -11.210938 8.203125 -11.46875 7.015625 -11.46875 L 3.828125 -11.46875 L 3.828125 -5.59375 Z M 7.015625 -5.59375 "/></g></g><g style="fill:#f2f0f0;fill-opacity:1;"><g transform="translate(277.653772, 94.606678)"><path style="stroke:none" d="M 3.421875 -8.25 C 3.734375 -8.820312 4.191406 -9.253906 4.796875 -9.546875 C 5.410156 -9.847656 6.15625 -10 7.03125 -10 L 7.03125 -8.265625 C 6.925781 -8.273438 6.789062 -8.28125 6.625 -8.28125 C 5.644531 -8.28125 4.878906 -7.988281 4.328125 -7.40625 C 3.773438 -6.832031 3.5 -6.007812 3.5 -4.9375 L 3.5 0 L 1.703125 0 L 1.703125 -9.90625 L 3.421875 -9.90625 Z M 3.421875 -8.25 "/></g></g><g style="fill:#f2f0f0;fill-opacity:1;"><g transform="translate(285.319678, 94.606678)"><path style="stroke:none" d="M 1.703125 -9.90625 L 3.5 -9.90625 L 3.5 0 L 1.703125 0 Z M 2.59375 -11.828125 C 2.238281 -11.828125 1.945312 -11.9375 1.71875 -12.15625 C 1.488281 -12.382812 1.375 -12.660156 1.375 -12.984375 C 1.375 -13.304688 1.488281 -13.582031 1.71875 -13.8125 C 1.945312 -14.039062 2.238281 -14.15625 2.59375 -14.15625 C 2.9375 -14.15625 3.222656 -14.046875 3.453125 -13.828125 C 3.691406 -13.609375 3.8125 -13.335938 3.8125 -13.015625 C 3.8125 -12.679688 3.691406 -12.398438 3.453125 -12.171875 C 3.222656 -11.941406 2.9375 -11.828125 2.59375 -11.828125 Z M 2.59375 -11.828125 "/></g></g><g style="fill:#f2f0f0;fill-opacity:1;"><g transform="translate(290.536238, 94.606678)"><path style="stroke:none" d="M 4.546875 0.109375 C 3.734375 0.109375 2.953125 0 2.203125 -0.21875 C 1.453125 -0.4375 0.867188 -0.710938 0.453125 -1.046875 L 1.203125 -2.46875 C 1.640625 -2.15625 2.164062 -1.90625 2.78125 -1.71875 C 3.40625 -1.53125 4.035156 -1.4375 4.671875 -1.4375 C 6.242188 -1.4375 7.03125 -1.882812 7.03125 -2.78125 C 7.03125 -3.082031 6.921875 -3.320312 6.703125 -3.5 C 6.492188 -3.675781 6.226562 -3.800781 5.90625 -3.875 C 5.59375 -3.957031 5.144531 -4.050781 4.5625 -4.15625 C 3.757812 -4.28125 3.109375 -4.421875 2.609375 -4.578125 C 2.109375 -4.742188 1.675781 -5.019531 1.3125 -5.40625 C 0.945312 -5.789062 0.765625 -6.332031 0.765625 -7.03125 C 0.765625 -7.925781 1.140625 -8.644531 1.890625 -9.1875 C 2.640625 -9.726562 3.644531 -10 4.90625 -10 C 5.5625 -10 6.21875 -9.914062 6.875 -9.75 C 7.539062 -9.59375 8.085938 -9.378906 8.515625 -9.109375 L 7.75 -7.6875 C 6.9375 -8.207031 5.976562 -8.46875 4.875 -8.46875 C 4.113281 -8.46875 3.535156 -8.34375 3.140625 -8.09375 C 2.742188 -7.84375 2.546875 -7.515625 2.546875 -7.109375 C 2.546875 -6.785156 2.65625 -6.53125 2.875 -6.34375 C 3.101562 -6.15625 3.378906 -6.015625 3.703125 -5.921875 C 4.035156 -5.835938 4.503906 -5.738281 5.109375 -5.625 C 5.898438 -5.488281 6.539062 -5.34375 7.03125 -5.1875 C 7.53125 -5.03125 7.953125 -4.765625 8.296875 -4.390625 C 8.648438 -4.015625 8.828125 -3.492188 8.828125 -2.828125 C 8.828125 -1.929688 8.441406 -1.21875 7.671875 -0.6875 C 6.910156 -0.15625 5.867188 0.109375 4.546875 0.109375 Z M 4.546875 0.109375 "/></g></g><g style="fill:#f2f0f0;fill-opacity:1;"><g transform="translate(299.903605, 94.606678)"><path style="stroke:none" d="M 1.703125 -9.90625 L 3.5 -9.90625 L 3.5 0 L 1.703125 0 Z M 2.59375 -11.828125 C 2.238281 -11.828125 1.945312 -11.9375 1.71875 -12.15625 C 1.488281 -12.382812 1.375 -12.660156 1.375 -12.984375 C 1.375 -13.304688 1.488281 -13.582031 1.71875 -13.8125 C 1.945312 -14.039062 2.238281 -14.15625 2.59375 -14.15625 C 2.9375 -14.15625 3.222656 -14.046875 3.453125 -13.828125 C 3.691406 -13.609375 3.8125 -13.335938 3.8125 -13.015625 C 3.8125 -12.679688 3.691406 -12.398438 3.453125 -12.171875 C 3.222656 -11.941406 2.9375 -11.828125 2.59375 -11.828125 Z M 2.59375 -11.828125 "/></g></g><g style="fill:#f2f0f0;fill-opacity:1;"><g transform="translate(305.120165, 94.606678)"><path style="stroke:none" d="M 5.953125 0.109375 C 4.960938 0.109375 4.070312 -0.109375 3.28125 -0.546875 C 2.5 -0.984375 1.882812 -1.582031 1.4375 -2.34375 C 1 -3.113281 0.78125 -3.984375 0.78125 -4.953125 C 0.78125 -5.929688 1 -6.800781 1.4375 -7.5625 C 1.882812 -8.332031 2.5 -8.929688 3.28125 -9.359375 C 4.070312 -9.785156 4.960938 -10 5.953125 -10 C 6.929688 -10 7.8125 -9.785156 8.59375 -9.359375 C 9.375 -8.929688 9.984375 -8.332031 10.421875 -7.5625 C 10.867188 -6.800781 11.09375 -5.929688 11.09375 -4.953125 C 11.09375 -3.984375 10.867188 -3.113281 10.421875 -2.34375 C 9.984375 -1.582031 9.375 -0.984375 8.59375 -0.546875 C 7.8125 -0.109375 6.929688 0.109375 5.953125 0.109375 Z M 5.953125 -1.453125 C 6.585938 -1.453125 7.15625 -1.597656 7.65625 -1.890625 C 8.164062 -2.191406 8.5625 -2.601562 8.84375 -3.125 C 9.132812 -3.65625 9.28125 -4.265625 9.28125 -4.953125 C 9.28125 -5.640625 9.132812 -6.25 8.84375 -6.78125 C 8.5625 -7.3125 8.164062 -7.71875 7.65625 -8 C 7.15625 -8.289062 6.585938 -8.4375 5.953125 -8.4375 C 5.316406 -8.4375 4.742188 -8.289062 4.234375 -8 C 3.734375 -7.71875 3.332031 -7.3125 3.03125 -6.78125 C 2.738281 -6.25 2.59375 -5.640625 2.59375 -4.953125 C 2.59375 -4.265625 2.738281 -3.65625 3.03125 -3.125 C 3.332031 -2.601562 3.734375 -2.191406 4.234375 -1.890625 C 4.742188 -1.597656 5.316406 -1.453125 5.953125 -1.453125 Z M 5.953125 -1.453125 "/></g></g><g style="fill:#f2f0f0;fill-opacity:1;"><g transform="translate(316.992966, 94.606678)"><path style="stroke:none" d="M 7 -10 C 8.257812 -10 9.257812 -9.632812 10 -8.90625 C 10.738281 -8.175781 11.109375 -7.109375 11.109375 -5.703125 L 11.109375 0 L 9.3125 0 L 9.3125 -5.5 C 9.3125 -6.457031 9.082031 -7.175781 8.625 -7.65625 C 8.164062 -8.144531 7.503906 -8.390625 6.640625 -8.390625 C 5.671875 -8.390625 4.90625 -8.109375 4.34375 -7.546875 C 3.78125 -6.984375 3.5 -6.171875 3.5 -5.109375 L 3.5 0 L 1.703125 0 L 1.703125 -9.90625 L 3.421875 -9.90625 L 3.421875 -8.421875 C 3.785156 -8.929688 4.273438 -9.320312 4.890625 -9.59375 C 5.503906 -9.863281 6.207031 -10 7 -10 Z M 7 -10 "/></g></g><g style="fill:#f2f0f0;fill-opacity:1;"><g transform="translate(329.72585, 94.606678)"><path style="stroke:none" d="M 5.3125 -10 C 6.6875 -10 7.738281 -9.660156 8.46875 -8.984375 C 9.195312 -8.316406 9.5625 -7.316406 9.5625 -5.984375 L 9.5625 0 L 7.859375 0 L 7.859375 -1.3125 C 7.554688 -0.851562 7.125 -0.5 6.5625 -0.25 C 6.007812 -0.0078125 5.351562 0.109375 4.59375 0.109375 C 3.488281 0.109375 2.601562 -0.15625 1.9375 -0.6875 C 1.269531 -1.226562 0.9375 -1.9375 0.9375 -2.8125 C 0.9375 -3.675781 1.253906 -4.375 1.890625 -4.90625 C 2.523438 -5.4375 3.535156 -5.703125 4.921875 -5.703125 L 7.765625 -5.703125 L 7.765625 -6.0625 C 7.765625 -6.832031 7.539062 -7.421875 7.09375 -7.828125 C 6.644531 -8.242188 5.984375 -8.453125 5.109375 -8.453125 C 4.523438 -8.453125 3.953125 -8.351562 3.390625 -8.15625 C 2.828125 -7.96875 2.351562 -7.710938 1.96875 -7.390625 L 1.21875 -8.734375 C 1.726562 -9.148438 2.335938 -9.460938 3.046875 -9.671875 C 3.753906 -9.890625 4.507812 -10 5.3125 -10 Z M 4.90625 -1.265625 C 5.582031 -1.265625 6.171875 -1.414062 6.671875 -1.71875 C 7.171875 -2.03125 7.535156 -2.46875 7.765625 -3.03125 L 7.765625 -4.40625 L 5 -4.40625 C 3.476562 -4.40625 2.71875 -3.894531 2.71875 -2.875 C 2.71875 -2.375 2.910156 -1.976562 3.296875 -1.6875 C 3.679688 -1.40625 4.21875 -1.265625 4.90625 -1.265625 Z M 4.90625 -1.265625 "/></g></g><g style="fill:#f2f0f0;fill-opacity:1;"><g transform="translate(340.906877, 94.606678)"><path style="stroke:none" d="M 1.703125 -13.875 L 3.5 -13.875 L 3.5 0 L 1.703125 0 Z M 1.703125 -13.875 "/></g></g></g></svg>