<?xml version="1.0" encoding="UTF-8"?>
<svg id="Camada_2" data-name="Camada 2" xmlns="http://www.w3.org/2000/svg" viewBox="0 0 103.22 125.51">
  <defs>
    <style>
      .cls-1 {
        stroke: #fbe200;
      }

      .cls-1, .cls-2 {
        fill: none;
        stroke-miterlimit: 10;
        stroke-width: 1.43px;
      }

      .cls-2 {
        stroke: #f2f0f0;
      }
    </style>
  </defs>
  <g id="Camada_1-2" data-name="Camada 1">
    <g>
      <path class="cls-2" d="M87.47,100.41c2.1-1.33,3.39-2.15,3.39-2.15,15.52-9.85,15.52-32.5,0-42.34l-37.94-24.07c-7.36-4.67-17.12-2.49-21.79,4.87-4.67,7.36-2.49,17.12,4.87,21.79l16.58,10.52c5.91,3.75,5.91,12.37,0,16.12l-16.58,10.52c-7.36,4.67-9.54,14.43-4.87,21.79,4.67,7.36,14.43,9.54,21.79,4.87,0,0,25.25-16.02,34.55-21.92Z"/>
      <path class="cls-1" d="M67.21,67l-16.58-10.52c-5.91-3.75-5.91-12.37,0-16.12l16.58-10.52c7.36-4.67,9.54-14.43,4.87-21.79-4.67-7.36-14.43-9.54-21.79-4.87L12.36,27.25c-15.52,9.85-15.52,32.5,0,42.34l37.94,24.07c7.36,4.67,17.12,2.49,21.79-4.87,4.67-7.36,2.49-17.12-4.87-21.79"/>
    </g>
  </g>
</svg>