<svg width="213" height="256" viewBox="0 0 213 256" fill="none" xmlns="http://www.w3.org/2000/svg">
<path d="M64.8033 75.1018C74.1135 60.5996 93.5826 56.2973 108.266 65.5022L187.515 115.161C219.001 134.896 219.002 180.244 187.518 199.981H187.52C187.519 199.982 187.517 199.982 187.514 199.984C187.509 199.987 187.501 199.993 187.491 199.999C187.47 200.012 187.438 200.031 187.397 200.057C187.314 200.108 187.19 200.184 187.029 200.284C186.706 200.485 186.23 200.781 185.618 201.163C184.392 201.927 182.618 203.035 180.425 204.414L178.824 205.421L178.838 205.436L108.266 249.659C93.566 258.864 74.1128 254.545 64.8023 240.059C55.6457 225.794 59.7187 206.98 73.8443 197.621L74.524 197.183L109.174 175.473C122.249 167.288 122.453 148.599 109.787 140.086L109.174 139.689L74.524 117.979H74.523C59.8341 108.78 55.5007 89.5772 64.8033 75.1028V75.1018Z" stroke="#F2F0F0" stroke-width="3" stroke-miterlimit="10"/>
<path d="M104.363 6.33984C119.063 -2.86496 138.516 1.4537 147.827 15.9395V15.9404C156.985 30.2049 152.913 49.0201 138.787 58.3789L138.106 58.8174L103.456 80.5273C90.1743 88.842 90.1745 107.996 103.456 116.311L138.106 138.021H138.107C152.796 147.22 157.131 166.407 147.827 180.898C138.517 195.401 119.048 199.703 104.364 190.498L25.1152 140.839C-6.37188 121.103 -6.37183 75.7524 25.1152 56.0166L104.364 6.34082L104.363 6.33984Z" stroke="#FBE200" stroke-width="3" stroke-miterlimit="10"/>
</svg>
